<?xml version="1.0" encoding="UTF-8"?><svg id="Layer_1" xmlns="http://www.w3.org/2000/svg" xmlns:xlink="http://www.w3.org/1999/xlink" viewBox="0 0 28.61 29.02"><defs><style>.cls-1{fill:#fff;}.cls-2{fill:url(#radial-gradient);}.cls-3{fill:url(#radial-gradient-2);}</style><radialGradient id="radial-gradient" cx="13.93" cy="-4.96" fx="13.93" fy="-4.96" r="44.9" gradientTransform="translate(-.43 25.04) scale(.79 -.81)" gradientUnits="userSpaceOnUse"><stop offset="0" stop-color="#fd5"/><stop offset=".33" stop-color="#ff543f"/><stop offset=".35" stop-color="#fc5245"/><stop offset=".5" stop-color="#e64771"/><stop offset=".64" stop-color="#d53e91"/><stop offset=".76" stop-color="#cc39a4"/><stop offset=".84" stop-color="#c837ab"/></radialGradient><radialGradient id="radial-gradient-2" cx="6.34" cy="34.82" fx="6.34" fy="34.82" r="29.81" gradientTransform="translate(-.43 18.33) scale(.79 -.54)" gradientUnits="userSpaceOnUse"><stop offset="0" stop-color="#4168c9"/><stop offset="1" stop-color="#4168c9" stop-opacity="0"/></radialGradient></defs><path class="cls-2" d="M22.26,29.01l-15.88,.02c-3.49,0-6.36-2.89-6.36-6.44L0,6.47C0,2.92,2.85,.02,6.35,.02L22.23,0c3.49,0,6.36,2.89,6.36,6.44l.02,16.11c0,3.55-2.85,6.45-6.35,6.45Z"/><path class="cls-3" d="M22.26,29.01l-15.88,.02c-3.49,0-6.36-2.89-6.36-6.44L0,6.47C0,2.92,2.85,.02,6.35,.02L22.23,0c3.49,0,6.36,2.89,6.36,6.44l.02,16.11c0,3.55-2.85,6.45-6.35,6.45Z"/><path class="cls-1" d="M14.3,20.15c-3.06,0-5.56-2.53-5.56-5.64s2.49-5.64,5.56-5.64,5.56,2.53,5.56,5.64-2.49,5.64-5.56,5.64Zm0-9.67c-2.19,0-3.97,1.81-3.97,4.03s1.78,4.03,3.97,4.03,3.97-1.81,3.97-4.03-1.78-4.03-3.97-4.03Z"/><ellipse class="cls-1" cx="20.26" cy="8.47" rx="1.19" ry="1.21"/><path class="cls-1" d="M19.07,24.99H9.54c-3.06,0-5.56-2.53-5.56-5.64V9.68c0-3.11,2.49-5.64,5.56-5.64h9.53c3.06,0,5.56,2.53,5.56,5.64v9.67c0,3.11-2.49,5.64-5.56,5.64ZM9.54,5.65c-2.19,0-3.97,1.81-3.97,4.03v9.67c0,2.22,1.78,4.03,3.97,4.03h9.53c2.19,0,3.97-1.81,3.97-4.03V9.68c0-2.22-1.78-4.03-3.97-4.03H9.54Z"/></svg>