<?xml version="1.0" encoding="UTF-8"?><svg id="Layer_1" xmlns="http://www.w3.org/2000/svg" viewBox="0 0 43.23 38.25"><defs><style>.cls-1{fill:#6b2673;}.cls-2{fill:#190a16;}</style></defs><g><path class="cls-1" d="M20.64,5.39c.42,0,.8,.45,1.07,1.17s.45,1.7,.45,2.79v6.71h-1.26v-6.83c0-.53-.19-.96-.42-.96h-.44c-.22,0-.4,.44-.4,.96v2.86c0,1.11-.18,2.08-.48,2.8-.29,.73-.7,1.17-1.14,1.17h-2.13c-.45,0-.85-.44-1.14-1.17-.29-.72-.47-1.69-.47-2.8V5.39h1.26v6.82c0,.54,.18,.97,.4,.97h2.06c.1,0,.19-.12,.26-.29,.07-.17,.11-.4,.11-.68v-2.86c0-1.08,.17-2.07,.45-2.79,.28-.72,.65-1.17,1.08-1.17h.73Z"/><path class="cls-1" d="M25.37,5.39c.42,0,.8,.45,1.08,1.17s.45,1.72,.45,2.8v2.86c0,.35-.01,.67-.04,.96h.99v2.87h-4.73v-2.87h2.42c.23,0,.41-.45,.41-.99v-2.94c0-.26-.05-.51-.12-.7-.07-.19-.19-.3-.29-.3h-1.79v-2.87h1.63Z"/><path class="cls-1" d="M27.84,16.05v-2.87h1.58v2.87h-1.58Z"/><path class="cls-1" d="M29.1,16.05v-2.87h1.58v2.87h-1.58Z"/><path class="cls-1" d="M31.62,3.41c.27-.06,.56-.16,.86-.55-.24-.29-.25-.86-.19-1.3,.05-.43,.18-.84,.35-1.15,.17-.29,.39-.45,.56-.4,.09,.03,.16,.11,.21,.24,.23,.57,.04,1.38-.16,1.94,.03,0,.06-.01,.09-.01,.03,0,.06-.02,.09-.02l-.11,.86c-.14,.03-.29,.05-.44,.03-.08,.16-.17,.3-.23,.39-.43,.62-.82,.76-1.15,.82l.11-.85Zm1.14-1.2c.04-.1,.06-.09,.14-.37l.04,.02s.13-.22,.17-.48c.03-.17,.02-.31-.02-.43-.02-.03-.04-.06-.07-.06-.08-.03-.14,.03-.21,.11-.04,.05-.07,.12-.09,.21-.06,.22-.08,.41-.07,.57,0,.12,.04,.26,.11,.45h0Z"/><path class="cls-1" d="M34.5,5.39c.42,0,.81,.43,1.09,1.12,.28,.7,.45,1.65,.45,2.68v2.85c0,1.12-.17,2.11-.46,2.84-.28,.73-.68,1.17-1.11,1.17h-3.79v-2.87h.71c-.12-.53-.18-1.11-.18-1.77,0-1.5,.34-2.57,.84-3.16h-.74v-2.87h3.19Zm-2.32,6.08c0,.63,.19,1.09,.43,1.09s.43-.46,.43-1.09-.18-1.09-.43-1.09-.43,.48-.43,1.09Zm1.08-3.21c.42,.66,.69,1.82,.69,3.16,0,.65-.06,1.24-.18,1.77h.59c.1,0,.2-.13,.28-.3,.07-.18,.12-.43,.12-.69v-2.93c0-.26-.04-.54-.12-.71-.08-.18-.18-.29-.28-.29h-1.11Z"/></g><g><g><path class="cls-2" d="M8.93,28.09h3.47v-10.02c0-1.04,.12-1.83,.37-2.35,.25-.53,.55-.79,.89-.79,.17,0,.34,.06,.49,.19,.15,.12,.29,.27,.41,.44,.12,.17,.21,.34,.28,.52,.07,.18,.1,.32,.1,.42s-.03,.16-.1,.18c-.07,.01-.14,.07-.22,.16-.08,.09-.16,.27-.22,.54-.07,.27-.1,.71-.1,1.32v18.41c0,.25-.07,.42-.21,.52-.14,.1-.3,.15-.48,.15-.14,0-.28-.02-.43-.07-.14-.05-.27-.11-.38-.19-.11-.08-.21-.16-.28-.27-.07-.1-.11-.21-.11-.32v-6.78h-3.47v6.95c0,.25-.07,.42-.21,.52-.14,.1-.3,.15-.48,.15-.14,0-.28-.02-.43-.07-.14-.05-.27-.11-.38-.19-.11-.08-.21-.16-.28-.27-.07-.1-.11-.21-.11-.32v-6.78h-1.73c-.13,0-.24-.05-.35-.14-.11-.1-.2-.22-.27-.37-.07-.15-.13-.31-.18-.48-.04-.17-.07-.33-.07-.49,0-.16,.03-.3,.09-.41,.06-.11,.15-.16,.27-.16h2.23v-9.49c-.75,0-1.44,.15-2.06,.45-.63,.3-1.17,.73-1.62,1.29-.45,.56-.81,1.24-1.06,2.03-.26,.79-.38,1.68-.38,2.67,0,.62,.05,1.18,.15,1.68,.1,.5,.22,.92,.37,1.27,.14,.35,.28,.62,.43,.81,.14,.19,.25,.29,.33,.29,.07,0,.12-.02,.15-.07,.03-.05,.08-.07,.14-.07s.1,.05,.12,.16c.02,.11,.02,.21,.02,.32,0,.31-.05,.6-.15,.87-.1,.27-.23,.49-.38,.66-.15,.17-.32,.27-.51,.31-.19,.04-.37-.02-.54-.17-.21-.18-.44-.44-.68-.78-.24-.34-.46-.76-.66-1.25-.2-.5-.37-1.07-.5-1.73-.13-.65-.19-1.38-.19-2.19,0-1.04,.11-1.98,.34-2.82,.22-.84,.53-1.58,.91-2.22,.38-.65,.83-1.2,1.35-1.66,.52-.46,1.07-.85,1.66-1.15,.59-.3,1.2-.52,1.83-.67,.63-.14,1.26-.22,1.87-.22,.13,0,.25,.03,.37,.09,.12,.06,.22,.15,.31,.26,.09,.11,.16,.24,.21,.39,.05,.15,.08,.32,.08,.49v10.47Z"/><path class="cls-2" d="M22.45,38.08c-.25,0-.48-.05-.69-.16-.21-.11-.39-.26-.54-.45-.15-.19-.28-.42-.38-.68-.1-.26-.17-.55-.21-.85-.27,.64-.58,1.16-.94,1.57-.36,.4-.78,.61-1.27,.61-.37,0-.7-.1-.99-.31-.29-.21-.54-.5-.74-.88-.2-.38-.35-.84-.46-1.38-.1-.54-.16-1.14-.16-1.8,0-.8,.04-1.6,.12-2.41,.08-.81,.17-1.54,.28-2.19,.12-.76,.25-1.5,.4-2.21,.04-.13,.06-.26,.08-.39,.02-.13,.06-.25,.12-.36,.06-.11,.17-.2,.31-.27,.14-.07,.36-.1,.65-.1,.27,0,.45,.07,.53,.2,.08,.13,.11,.29,.09,.47-.02,.18-.06,.36-.13,.55-.07,.19-.11,.34-.13,.46-.1,.56-.19,1.08-.27,1.54-.08,.46-.15,.93-.2,1.4-.05,.47-.1,.96-.12,1.47-.03,.51-.04,1.08-.04,1.71,0,.83,.09,1.46,.26,1.88,.18,.42,.43,.64,.75,.64,.22,0,.43-.11,.62-.34,.19-.23,.36-.53,.52-.91,.15-.38,.29-.81,.4-1.3,.12-.49,.21-1,.27-1.53v-4.99c0-.2-.01-.37-.04-.49-.02-.12-.05-.22-.07-.29-.02-.07-.05-.13-.07-.17-.02-.04-.04-.09-.04-.15,0-.05,.02-.09,.06-.13,.04-.04,.09-.07,.16-.1,.07-.03,.14-.05,.22-.06,.08-.01,.15-.02,.23-.02,.35,0,.62,.12,.82,.37,.2,.25,.3,.54,.3,.89v7.83c0,.07,0,.19,.01,.34,0,.16,.03,.32,.07,.48,.04,.16,.1,.3,.18,.43,.08,.12,.2,.18,.34,.18,.23,0,.43-.11,.59-.34,.17-.22,.31-.5,.43-.84,.12-.34,.22-.7,.3-1.09,.08-.39,.14-.76,.19-1.1,.04-.32,.12-.56,.22-.71,.1-.15,.21-.22,.32-.22,.09,0,.18,.04,.28,.11,.1,.08,.18,.18,.26,.3,.08,.12,.14,.26,.19,.41,.05,.15,.07,.3,.07,.46v.08s0,.07-.02,.13c-.1,.5-.23,1.03-.39,1.58-.16,.55-.37,1.06-.62,1.52-.25,.46-.55,.85-.91,1.15-.35,.31-.77,.46-1.24,.46Z"/><path class="cls-2" d="M26.81,38.25c-.44,0-.85-.11-1.21-.32-.36-.21-.67-.53-.93-.95-.26-.42-.45-.94-.59-1.57-.14-.62-.21-1.35-.21-2.17,0-1.2,.12-2.26,.37-3.2,.24-.94,.58-1.74,1-2.42,.42-.67,.91-1.21,1.46-1.61,.55-.4,1.14-.66,1.76-.78v-6.82s0-.39-.03-.52c-.03-.13-.05-.23-.08-.31-.03-.07-.05-.13-.08-.18-.03-.04-.04-.09-.04-.14,0-.06,.02-.11,.07-.15,.04-.04,.1-.07,.17-.1,.07-.03,.15-.05,.23-.07,.08-.01,.17-.02,.25-.02,.37,0,.66,.13,.88,.4,.21,.26,.51,.95,.51,.95v16.43c0,.16,.01,.33,.04,.49,.03,.16,.07,.3,.13,.43,.06,.13,.14,.24,.23,.32,.1,.08,.21,.12,.33,.12,.22,0,.41-.11,.57-.32,.16-.21,.3-.48,.41-.8,.12-.32,.21-.66,.29-1.04,.07-.37,.14-.72,.18-1.05,.04-.31,.11-.53,.21-.67,.1-.14,.2-.21,.31-.21,.08,0,.17,.04,.26,.11,.09,.07,.17,.17,.25,.28,.07,.12,.13,.25,.18,.39,.05,.14,.07,.29,.07,.43v.07s0,.08-.02,.14c-.1,.52-.23,1.06-.39,1.63-.17,.57-.38,1.09-.64,1.57-.26,.48-.57,.87-.94,1.19-.36,.31-.79,.47-1.28,.47-.39,0-.74-.11-1.03-.33-.3-.22-.53-.52-.7-.88-.25,.35-.54,.65-.87,.87-.33,.23-.71,.34-1.15,.34Zm.37-2.13c.29,0,.54-.11,.76-.34,.21-.23,.39-.51,.54-.85v-7.57c-.36,.09-.71,.26-1.05,.5-.34,.24-.64,.59-.89,1.02-.26,.44-.46,.99-.62,1.67-.15,.67-.23,1.49-.23,2.45,0,.56,.04,1.03,.13,1.43,.08,.39,.19,.72,.33,.96,.13,.25,.29,.43,.47,.55,.18,.12,.37,.18,.57,.18Z"/><path class="cls-2" d="M38.72,36.25c.24,0,.45-.12,.62-.35,.17-.23,.32-.52,.45-.87s.23-.73,.31-1.13c.08-.41,.15-.79,.2-1.15,.05-.34,.13-.58,.24-.74,.1-.15,.22-.23,.34-.23,.09,0,.19,.04,.28,.12,.1,.08,.18,.18,.27,.31,.08,.13,.15,.27,.2,.43,.05,.16,.08,.32,.08,.48v.15s0,.08-.02,.14c-.1,.52-.23,1.06-.39,1.63-.17,.57-.38,1.09-.64,1.57-.26,.48-.57,.87-.94,1.19-.37,.31-.79,.47-1.28,.47-.4,0-.75-.12-1.04-.35-.3-.23-.53-.54-.7-.93-.23,.35-.5,.66-.83,.9-.32,.25-.7,.37-1.13,.37s-.83-.12-1.17-.37c-.34-.24-.62-.58-.85-1-.23-.42-.4-.92-.52-1.49-.11-.57-.17-1.19-.17-1.85,0-1.3,.15-2.46,.45-3.5,.3-1.03,.71-1.91,1.21-2.64,.5-.72,1.08-1.28,1.72-1.67,.65-.39,1.32-.58,2.01-.58,.31,0,.56,.12,.75,.35,.19,.23,.29,.55,.29,.96,0,.26-.02,.45-.06,.56-.04,.11-.12,.16-.23,.16-.1,0-.21-.01-.32-.03-.11-.02-.23-.03-.34-.03-.43,0-.87,.13-1.31,.39s-.84,.65-1.2,1.19c-.36,.53-.65,1.21-.88,2.02-.23,.82-.34,1.79-.34,2.91,0,.82,.11,1.45,.34,1.89,.23,.44,.54,.66,.94,.66,.31,0,.57-.16,.78-.48,.21-.32,.37-.7,.5-1.13v-4.83c0-.14,0-.25-.02-.35-.01-.09-.02-.17-.03-.24-.01-.06-.02-.12-.03-.17,0-.05-.01-.1-.01-.15,0-.15,.05-.27,.16-.35,.1-.09,.23-.13,.38-.13,.34,0,.62,.12,.82,.37,.2,.24,.3,.54,.3,.88v5.14c0,.18,.02,.36,.05,.53,.03,.17,.08,.33,.14,.48,.06,.14,.14,.26,.25,.35,.1,.09,.23,.13,.36,.13Z"/></g><g><path class="cls-1" d="M8.93,28.09h3.47v-10.02c0-1.04,.12-1.83,.37-2.35,.25-.53,.55-.79,.89-.79,.17,0,.34,.06,.49,.19,.15,.12,.29,.27,.41,.44,.12,.17,.21,.34,.28,.52,.07,.18,.1,.32,.1,.42s-.03,.16-.1,.18c-.07,.01-.14,.07-.22,.16-.08,.09-.16,.27-.22,.54-.07,.27-.1,.71-.1,1.32v18.41c0,.25-.07,.42-.21,.52-.14,.1-.3,.15-.48,.15-.14,0-.28-.02-.43-.07-.14-.05-.27-.11-.38-.19-.11-.08-.21-.16-.28-.27-.07-.1-.11-.21-.11-.32v-6.78h-3.47v6.95c0,.25-.07,.42-.21,.52-.14,.1-.3,.15-.48,.15-.14,0-.28-.02-.43-.07-.14-.05-.27-.11-.38-.19-.11-.08-.21-.16-.28-.27-.07-.1-.11-.21-.11-.32v-6.78h-1.73c-.13,0-.24-.05-.35-.14-.11-.1-.2-.22-.27-.37-.07-.15-.13-.31-.18-.48-.04-.17-.07-.33-.07-.49,0-.16,.03-.3,.09-.41,.06-.11,.15-.16,.27-.16h2.23v-9.49c-.75,0-1.44,.15-2.06,.45-.63,.3-1.17,.73-1.62,1.29-.45,.56-.81,1.24-1.06,2.03-.26,.79-.38,1.68-.38,2.67,0,.62,.05,1.18,.15,1.68,.1,.5,.22,.92,.37,1.27,.14,.35,.28,.62,.43,.81,.14,.19,.25,.29,.33,.29,.07,0,.12-.02,.15-.07,.03-.05,.08-.07,.14-.07s.1,.05,.12,.16c.02,.11,.02,.21,.02,.32,0,.31-.05,.6-.15,.87-.1,.27-.23,.49-.38,.66-.15,.17-.32,.27-.51,.31-.19,.04-.37-.02-.54-.17-.21-.18-.44-.44-.68-.78-.24-.34-.46-.76-.66-1.25-.2-.5-.37-1.07-.5-1.73-.13-.65-.19-1.38-.19-2.19,0-1.04,.11-1.98,.34-2.82,.22-.84,.53-1.58,.91-2.22,.38-.65,.83-1.2,1.35-1.66,.52-.46,1.07-.85,1.66-1.15,.59-.3,1.2-.52,1.83-.67,.63-.14,1.26-.22,1.87-.22,.13,0,.25,.03,.37,.09,.12,.06,.22,.15,.31,.26,.09,.11,.16,.24,.21,.39,.05,.15,.08,.32,.08,.49v10.47Z"/><path class="cls-1" d="M22.45,38.08c-.25,0-.48-.05-.69-.16-.21-.11-.39-.26-.54-.45-.15-.19-.28-.42-.38-.68-.1-.26-.17-.55-.21-.85-.27,.64-.58,1.16-.94,1.57-.36,.4-.78,.61-1.27,.61-.37,0-.7-.1-.99-.31-.29-.21-.54-.5-.74-.88-.2-.38-.35-.84-.46-1.38-.1-.54-.16-1.14-.16-1.8,0-.8,.04-1.6,.12-2.41,.08-.81,.17-1.54,.28-2.19,.12-.76,.25-1.5,.4-2.21,.04-.13,.06-.26,.08-.39,.02-.13,.06-.25,.12-.36,.06-.11,.17-.2,.31-.27,.14-.07,.36-.1,.65-.1,.27,0,.45,.07,.53,.2,.08,.13,.11,.29,.09,.47-.02,.18-.06,.36-.13,.55-.07,.19-.11,.34-.13,.46-.1,.56-.19,1.08-.27,1.54-.08,.46-.15,.93-.2,1.4-.05,.47-.1,.96-.12,1.47-.03,.51-.04,1.08-.04,1.71,0,.83,.09,1.46,.26,1.88,.18,.42,.43,.64,.75,.64,.22,0,.43-.11,.62-.34,.19-.23,.36-.53,.52-.91,.15-.38,.29-.81,.4-1.3,.12-.49,.21-1,.27-1.53v-4.99c0-.2-.01-.37-.04-.49-.02-.12-.05-.22-.07-.29-.02-.07-.05-.13-.07-.17-.02-.04-.04-.09-.04-.15,0-.05,.02-.09,.06-.13,.04-.04,.09-.07,.16-.1,.07-.03,.14-.05,.22-.06,.08-.01,.15-.02,.23-.02,.35,0,.62,.12,.82,.37,.2,.25,.3,.54,.3,.89v7.83c0,.07,0,.19,.01,.34,0,.16,.03,.32,.07,.48,.04,.16,.1,.3,.18,.43,.08,.12,.2,.18,.34,.18,.23,0,.43-.11,.59-.34,.17-.22,.31-.5,.43-.84,.12-.34,.22-.7,.3-1.09,.08-.39,.14-.76,.19-1.1,.04-.32,.12-.56,.22-.71,.1-.15,.21-.22,.32-.22,.09,0,.18,.04,.28,.11,.1,.08,.18,.18,.26,.3,.08,.12,.14,.26,.19,.41,.05,.15,.07,.3,.07,.46v.08s0,.07-.02,.13c-.1,.5-.23,1.03-.39,1.58-.16,.55-.37,1.06-.62,1.52-.25,.46-.55,.85-.91,1.15-.35,.31-.77,.46-1.24,.46Z"/><path class="cls-1" d="M26.81,38.25c-.44,0-.85-.11-1.21-.32-.36-.21-.67-.53-.93-.95-.26-.42-.45-.94-.59-1.57-.14-.62-.21-1.35-.21-2.17,0-1.2,.12-2.26,.37-3.2,.24-.94,.58-1.74,1-2.42,.42-.67,.91-1.21,1.46-1.61,.55-.4,1.14-.66,1.76-.78v-6.82s0-.39-.03-.52c-.03-.13-.05-.23-.08-.31-.03-.07-.05-.13-.08-.18-.03-.04-.04-.09-.04-.14,0-.06,.02-.11,.07-.15,.04-.04,.1-.07,.17-.1,.07-.03,.15-.05,.23-.07,.08-.01,.17-.02,.25-.02,.37,0,.66,.13,.88,.4,.21,.26,.51,.95,.51,.95v16.43c0,.16,.01,.33,.04,.49,.03,.16,.07,.3,.13,.43,.06,.13,.14,.24,.23,.32,.1,.08,.21,.12,.33,.12,.22,0,.41-.11,.57-.32,.16-.21,.3-.48,.41-.8,.12-.32,.21-.66,.29-1.04,.07-.37,.14-.72,.18-1.05,.04-.31,.11-.53,.21-.67,.1-.14,.2-.21,.31-.21,.08,0,.17,.04,.26,.11,.09,.07,.17,.17,.25,.28,.07,.12,.13,.25,.18,.39,.05,.14,.07,.29,.07,.43v.07s0,.08-.02,.14c-.1,.52-.23,1.06-.39,1.63-.17,.57-.38,1.09-.64,1.57-.26,.48-.57,.87-.94,1.19-.36,.31-.79,.47-1.28,.47-.39,0-.74-.11-1.03-.33-.3-.22-.53-.52-.7-.88-.25,.35-.54,.65-.87,.87-.33,.23-.71,.34-1.15,.34Zm.37-2.13c.29,0,.54-.11,.76-.34,.21-.23,.39-.51,.54-.85v-7.57c-.36,.09-.71,.26-1.05,.5-.34,.24-.64,.59-.89,1.02-.26,.44-.46,.99-.62,1.67-.15,.67-.23,1.49-.23,2.45,0,.56,.04,1.03,.13,1.43,.08,.39,.19,.72,.33,.96,.13,.25,.29,.43,.47,.55,.18,.12,.37,.18,.57,.18Z"/><path class="cls-1" d="M38.72,36.25c.24,0,.45-.12,.62-.35,.17-.23,.32-.52,.45-.87s.23-.73,.31-1.13c.08-.41,.15-.79,.2-1.15,.05-.34,.13-.58,.24-.74,.1-.15,.22-.23,.34-.23,.09,0,.19,.04,.28,.12,.1,.08,.18,.18,.27,.31,.08,.13,.15,.27,.2,.43,.05,.16,.08,.32,.08,.48v.15s0,.08-.02,.14c-.1,.52-.23,1.06-.39,1.63-.17,.57-.38,1.09-.64,1.57-.26,.48-.57,.87-.94,1.19-.37,.31-.79,.47-1.28,.47-.4,0-.75-.12-1.04-.35-.3-.23-.53-.54-.7-.93-.23,.35-.5,.66-.83,.9-.32,.25-.7,.37-1.13,.37s-.83-.12-1.17-.37c-.34-.24-.62-.58-.85-1-.23-.42-.4-.92-.52-1.49-.11-.57-.17-1.19-.17-1.85,0-1.3,.15-2.46,.45-3.5,.3-1.03,.71-1.91,1.21-2.64,.5-.72,1.08-1.28,1.72-1.67,.65-.39,1.32-.58,2.01-.58,.31,0,.56,.12,.75,.35,.19,.23,.29,.55,.29,.96,0,.26-.02,.45-.06,.56-.04,.11-.12,.16-.23,.16-.1,0-.21-.01-.32-.03-.11-.02-.23-.03-.34-.03-.43,0-.87,.13-1.31,.39s-.84,.65-1.2,1.19c-.36,.53-.65,1.21-.88,2.02-.23,.82-.34,1.79-.34,2.91,0,.82,.11,1.45,.34,1.89,.23,.44,.54,.66,.94,.66,.31,0,.57-.16,.78-.48,.21-.32,.37-.7,.5-1.13v-4.83c0-.14,0-.25-.02-.35-.01-.09-.02-.17-.03-.24-.01-.06-.02-.12-.03-.17,0-.05-.01-.1-.01-.15,0-.15,.05-.27,.16-.35,.1-.09,.23-.13,.38-.13,.34,0,.62,.12,.82,.37,.2,.24,.3,.54,.3,.88v5.14c0,.18,.02,.36,.05,.53,.03,.17,.08,.33,.14,.48,.06,.14,.14,.26,.25,.35,.1,.09,.23,.13,.36,.13Z"/></g></g><g><polygon class="cls-1" points="39.1 22.13 42.84 22.23 42.84 21.79 39.1 21.69 39.1 22.13"/><path class="cls-1" d="M41.35,17.3c0,.24,.08,.44,.18,.44l.73,.02v.44l-.74-.02c-.1,0-.19,.19-.19,.44,0,.24,.08,.44,.19,.44l.73,.02v.44l-.73-.02c-.1,0-.19,.19-.19,.43,0,.24,.08,.44,.19,.44l.73,.02v1.15l-2.66-.08v-1.13l.73,.02h0c.1,0,.18-.2,.18-.43,0-.24-.08-.44-.18-.44l-.73-.02v-.44l.73,.02c.1,0,.19-.19,.19-.43,0-.25-.08-.44-.18-.45l-.73-.02v-.44l.73,.02h0c.1,0,.18-.2,.18-.43,0-.24-.08-.44-.18-.44l-.73-.02v-.18c0-1.73,.61-3.13,1.34-3.11,.73,.02,1.32,1.45,1.31,3.19v.16l-.73-.02c-.1,0-.19,.19-.19,.43Z"/><path class="cls-1" d="M39.59,22.14l2.66,.07v1.3c-.01,1.72-.62,3.1-1.35,3.08h0c-.73-.02-1.32-1.44-1.32-3.16v-1.3Z"/><polygon class="cls-1" points="39.39 22.36 42.45 22.44 42.45 21.34 39.4 21.26 39.39 22.36"/><polygon class="cls-1" points="42.64 22.45 43.14 22.46 43.14 21.36 42.65 21.35 42.64 22.45"/><polygon class="cls-1" points="38.7 22.34 39.2 22.35 39.2 21.25 38.71 21.24 38.7 22.34"/><path class="cls-1" d="M40.91,28.12h-.02c-1-.12-1.75-1.14-2.08-3.23-.1-.66-.16-1.36-.17-2.05,0-.31,0-.63,.01-.93,.01-.24,.11-.42,.22-.39,.11,.03,.19,.24,.18,.49-.01,.27-.01,.55-.01,.82,0,.61,.05,1.23,.14,1.8,.27,1.77,.88,2.59,1.73,2.61h0c.85,.03,1.46-.77,1.75-2.52,.09-.57,.14-1.19,.16-1.79,0-.27,0-.55,0-.82,0-.24,.07-.46,.19-.47,.11-.02,.21,.16,.22,.4,0,.09,0,.18,0,.27,0,.23,0,.45,0,.68-.02,.69-.08,1.39-.19,2.05-.35,2.07-1.11,3.04-2.12,3.09h-.02Z"/><polygon class="cls-1" points="40.54 30.53 41.23 30.55 41.24 28.13 40.55 28.11 40.54 30.53"/><path class="cls-1" d="M39.68,30.51l2.45,.07c.15,0,.28,.31,.28,.67h0c0,.36-.13,.66-.28,.65l-2.45-.07c-.15,0-.28-.31-.28-.67h0c0-.36,.13-.66,.28-.65Z"/></g></svg>