<?xml version="1.0" encoding="UTF-8"?><svg id="Layer_1" xmlns="http://www.w3.org/2000/svg" viewBox="0 0 135.18 126.63"><defs><style>.cls-1{fill:#d5e8fa;}.cls-2,.cls-3{fill:#fff;}.cls-4{fill:#ee8c4d;}.cls-5{fill:#1e3865;}.cls-6{fill:#ff912b;}.cls-3{opacity:.3;}.cls-7{fill:#e8f2fa;}.cls-8{fill:#a9c2ff;}.cls-9{fill:#173359;}.cls-10{fill:#2d3554;}.cls-11{fill:#25468f;}.cls-12{fill:#0b3563;}.cls-13{fill:#c7433d;}.cls-14{fill:#d44b40;}.cls-15{fill:#fc7600;}.cls-16{fill:#173b66;}.cls-17{fill:#e6f2ff;}.cls-18{fill:#ffae73;}.cls-19{fill:#1b3f7e;}.cls-20{fill:#f9924f;}</style></defs><path class="cls-8" d="M135.18,73.44v.5c0,1.54-.03,3.18-.08,4.93-.04,1.45-.1,2.96-.18,4.51-.17,3.45-.43,7.12-.77,10.81-.06,.64-.12,1.28-.19,1.91-.07,.66-.14,1.33-.22,1.99-.36,3.28-.8,6.51-1.31,9.56-.14,.83-.29,1.64-.43,2.44-.31,1.66-.65,3.24-1.01,4.73h0c-.46,1.91-.96,3.66-1.51,5.21-.05,.15-.11,.31-.17,.47-.17,.49-.36,.94-.54,1.38-.13,.3-.26,.59-.39,.87-.1,.21-.2,.41-.3,.61-.13,.24-.25,.48-.38,.7-.05,.09-.1,.17-.15,.26-.1,.16-.2,.33-.3,.48-.33,.47-.67,.87-1.03,1.2,0,.01-.01,.01-.02,.02-.01,.02-.04,.03-.05,.05-.04,.04-.07,.07-.1,.09-.07,.06-.14,.12-.22,.17l-8.38,.09-14.4,.15-29.04-.17-10.35-.06-10.36-.06h-.72l-19.21-.12h-1.89l-6.09-.05-3.06-.02-13.08-.08h-.16v-.02c-.09-.09-.45-.59-.99-1.47-.1-.16-.21-.34-.32-.52-.12-.19-.23-.38-.36-.61C4.76,118.72-.16,107.93,0,92.3c.09-9.36,1.03-25.81,8.05-37.46,.12-.19,.23-.38,.35-.57,.03-.03,.06-.08,.09-.14l.02-.03c.04-.06,.07-.1,.12-.17l.04-.07s.06-.09,.09-.14l.1-.16c.05-.06,.09-.13,.14-.21t0-.01s.06-.08,.09-.13h0c.05-.08,.1-.15,.14-.22,.04-.05,.08-.12,.12-.17t0-.01c.07-.09,.13-.19,.2-.27,.04-.06,.08-.12,.12-.17,.03-.05,.07-.09,.09-.14,.03-.02,.04-.06,.07-.08,.04-.06,.08-.12,.12-.17,.02-.03,.04-.06,.07-.08,.05-.07,.1-.13,.15-.2l.02-.03c.08-.09,.15-.2,.23-.29l.2-.24s.02-.02,.03-.03c.06-.07,.12-.14,.18-.21,.05-.07,.11-.14,.16-.2,.02-.02,.04-.05,.06-.07,.07-.08,.14-.16,.22-.26,.05-.06,.11-.12,.16-.17,.07-.07,.12-.14,.19-.21,.04-.05,.09-.09,.13-.15,.07-.07,.13-.13,.2-.2,.05-.06,.11-.12,.16-.17,.02-.02,.04-.05,.06-.06,.06-.06,.11-.12,.17-.17,.07-.07,.13-.13,.2-.2,0,0,0,0,0-.01,.07-.06,.13-.13,.19-.19,.07-.06,.14-.13,.2-.2,0,0,.02-.01,.03-.02,.06-.06,.12-.12,.17-.16,.07-.07,.14-.13,.2-.19,.07-.07,.14-.13,.2-.19,0,0,0-.01,0-.01,.07-.06,.14-.12,.2-.19,.07-.06,.14-.12,.2-.17,.01-.01,.02-.01,.03-.02,.07-.06,.13-.1,.2-.16,.07-.06,.13-.1,.2-.16,.05-.05,.11-.09,.16-.13,.24-.2,.49-.4,.73-.58,.43-.33,.88-.64,1.33-.93,.07-.05,.14-.09,.2-.13,.07-.05,.13-.08,.2-.13,.07-.05,.13-.08,.2-.13,.11-.07,.22-.13,.33-.2,.07-.03,.14-.08,.22-.12,.07-.05,.13-.08,.2-.12,.08-.05,.16-.09,.25-.14h0s.01-.01,.02-.01c.07-.04,.13-.08,.2-.12,.09-.05,.2-.1,.3-.15l.26-.14h.01c.07-.05,.15-.08,.23-.12,.04-.02,.07-.04,.11-.06,.08-.04,.16-.07,.23-.1,.03-.01,.05-.02,.07-.03,.09-.05,.19-.08,.28-.13,.09-.03,.19-.08,.28-.13l.11-.03c.07-.04,.14-.07,.22-.09,.01-.01,.03-.02,.04-.02,.1-.05,.21-.08,.31-.13l.28-.1s.05-.02,.08-.03c.1-.04,.2-.07,.3-.12,.12-.03,.22-.07,.33-.12h0c.12-.03,.22-.08,.33-.12,.12-.04,.24-.08,.36-.12,.06-.02,.12-.05,.17-.07l.17-.07c.05-.01,.1-.03,.15-.06,.05-.02,.1-.03,.16-.06,.04-.02,.09-.05,.15-.07,.05-.02,.1-.04,.15-.06,.05-.02,.09-.05,.14-.07,.1-.05,.21-.09,.31-.14,.05-.02,.09-.05,.15-.07,.09-.05,.19-.1,.28-.15h.01c.09-.05,.19-.1,.28-.15,.1-.06,.19-.1,.28-.16,.09-.06,.19-.1,.28-.16,0-.01,.01-.01,.03-.02,.13-.08,.27-.16,.4-.24h0s.09-.06,.12-.09c.06-.03,.11-.07,.16-.1,.08-.06,.16-.1,.24-.16,.04-.04,.09-.07,.14-.1,.14-.09,.27-.2,.41-.3,.07-.06,.15-.12,.22-.17l.22-.17s.01-.01,.01-.02c.08-.06,.15-.13,.23-.19,0-.01,.01-.02,.03-.02,.06-.06,.12-.1,.17-.16,.03-.02,.06-.06,.09-.08,.04-.04,.09-.08,.13-.12,.04-.03,.07-.07,.1-.09l.22-.21c.07-.07,.14-.13,.2-.2,.07-.08,.15-.15,.22-.23,.07-.07,.14-.15,.22-.22h0c.06-.07,.11-.13,.16-.19,.04-.03,.07-.07,.09-.1,.04-.03,.08-.08,.12-.13,.04-.03,.08-.08,.12-.13,.04-.05,.08-.08,.12-.13,.04-.05,.08-.09,.12-.14l.09-.1c.07-.07,.12-.15,.19-.23,0-.01,.02-.02,.03-.03,.07-.07,.13-.15,.19-.23,.09-.1,.18-.22,.27-.34,.07-.08,.13-.16,.2-.26l.03-.05c.05-.06,.1-.13,.15-.2,.01-.01,.02-.02,.04-.03,.02-.04,.05-.08,.08-.12,.01-.02,.03-.04,.04-.06,.02-.03,.04-.06,.07-.09,.01-.02,.02-.04,.04-.05v-.02l.03-.02s.07-.1,.11-.15c.05-.07,.09-.14,.14-.21,.01-.02,.04-.05,.05-.08,.04-.06,.09-.13,.14-.2l.04-.06s.02-.03,.04-.05c.05-.08,.1-.15,.14-.23,.01-.01,.02-.02,.03-.03l.08-.13s.04-.05,.05-.08c.01-.01,.03-.03,.04-.05,.01-.03,.03-.05,.04-.07,.01-.03,.04-.06,.05-.08l.04-.06s.02-.05,.04-.06l.07-.1,.14-.23c.09-.15,.18-.3,.28-.45,0-.01,0-.02,.01-.02,.04-.08,.09-.15,.13-.23l.04-.06c.07-.12,.14-.24,.2-.36l.02-.03s.02-.03,.03-.06c.07-.13,.14-.24,.21-.37l.03-.05v-.02c.09-.14,.16-.28,.24-.42l.02-.03s.01-.04,.02-.05c.08-.15,.16-.3,.23-.44,.08-.16,.16-.31,.24-.47s.16-.31,.24-.47c0-.01,.01-.02,.01-.03,.06-.12,.12-.23,.17-.36l.04-.07c.04-.07,.07-.15,.1-.22,.03-.06,.06-.1,.08-.16,.09-.19,.18-.38,.28-.57,.22-.48,.44-.97,.67-1.46,0-.01,.01-.04,.03-.06,.05-.12,.09-.22,.14-.34,.03-.06,.06-.12,.08-.17,.07-.14,.12-.27,.18-.41,.02-.05,.04-.09,.06-.14,.04-.09,.09-.2,.14-.3,.04-.09,.09-.2,.13-.3,.17-.41,.36-.83,.53-1.25,.02-.03,.04-.08,.06-.12t0-.02l.04-.1c.07-.17,.15-.35,.22-.52,.09-.21,.17-.42,.26-.62,.37-.89,.73-1.76,1.1-2.63,.07-.16,.13-.31,.2-.47,0-.01,0-.02,.01-.03,.01-.05,.03-.08,.05-.12,.05-.13,.11-.26,.16-.4,.04-.09,.09-.2,.13-.3,.03-.06,.06-.13,.09-.2,.05-.1,.09-.21,.14-.33l.04-.1s.02-.05,.03-.06c.06-.14,.12-.27,.17-.4l.04-.1c.07-.16,.14-.34,.22-.5,.07-.16,.15-.33,.22-.49h0s.03-.07,.04-.09l.02-.03s.04-.09,.07-.15c.01-.02,.02-.06,.04-.08,.03-.06,.05-.1,.07-.16,.04-.08,.08-.16,.12-.24,.11-.23,.22-.47,.33-.7,.1-.21,.2-.42,.3-.63,.06-.13,.12-.26,.18-.37,.04-.08,.08-.17,.12-.26,.05-.09,.1-.2,.15-.3,.05-.1,.1-.21,.16-.3l.15-.31c.32-.62,.65-1.22,.98-1.82,.06-.09,.12-.2,.17-.3,.1-.17,.21-.36,.32-.54,.05-.09,.1-.17,.15-.27l.41-.65c.05-.08,.11-.16,.16-.24,.04-.06,.07-.12,.11-.16,.04-.07,.09-.14,.13-.2,.05-.08,.11-.16,.17-.26,0-.01,.02-.02,.03-.05l.17-.24c.07-.09,.13-.19,.2-.28,.06-.08,.12-.17,.18-.26l.03-.05c.07-.08,.12-.16,.18-.24,.06-.08,.12-.16,.18-.23,.01-.02,.03-.03,.04-.06,.07-.08,.12-.15,.19-.23,.07-.09,.14-.17,.2-.27,.07-.08,.15-.17,.21-.26,.04-.05,.07-.08,.11-.13,.04-.03,.07-.08,.1-.13,.04-.03,.07-.07,.1-.12,.11-.13,.22-.26,.33-.37,.04-.05,.07-.08,.1-.12,.04-.05,.08-.09,.12-.13,.04-.05,.07-.08,.12-.12l.22-.24c.08-.07,.15-.15,.23-.23,.06-.06,.12-.13,.19-.19,.02-.02,.04-.05,.07-.06,0-.01,0-.01,0-.01,.07-.06,.12-.13,.19-.19,.08-.08,.17-.15,.25-.23,.04-.04,.08-.07,.12-.1,.04-.05,.09-.08,.13-.12,.04-.03,.07-.07,.11-.09,.44-.4,.91-.77,1.38-1.11,.03-.02,.06-.05,.09-.06l.2-.14c.07-.05,.12-.09,.19-.13,.02-.01,.04-.02,.06-.05,.05-.02,.09-.06,.14-.08,.07-.05,.13-.09,.2-.13,.06-.03,.11-.07,.16-.1,.03-.01,.05-.02,.08-.05,.08-.05,.15-.09,.23-.13,.27-.16,.55-.31,.83-.47,.09-.05,.17-.08,.25-.13,.11-.05,.21-.1,.32-.15,.07-.03,.14-.06,.21-.09,.03-.01,.05-.02,.08-.04,.09-.03,.18-.08,.28-.12,.09-.05,.2-.08,.3-.12,.09-.05,.2-.08,.3-.12,.09-.03,.2-.07,.29-.1,0-.01,.01-.01,.02-.01,.09-.03,.2-.07,.3-.1,2.71-.89,5.89-1.17,9.66-.63,.59,.08,1.16,.21,1.72,.37,5.27,1.49,9.1,6.13,12.75,9.5,2.86,2.62,5.6,4.49,8.86,3.49,.36-.1,.71-.24,1.07-.42,.1-.05,.2-.09,.3-.14,.1-.05,.2-.09,.3-.14,.4-.2,.8-.37,1.2-.56,.18-.08,.36-.16,.54-.23,.02-.01,.04-.02,.05-.02,.09-.05,.18-.08,.27-.12,.09-.05,.19-.08,.28-.12,.32-.14,.63-.27,.94-.38,.11-.05,.22-.09,.34-.14,.57-.22,1.15-.43,1.71-.63,.09-.04,.2-.07,.29-.1,.12-.03,.22-.07,.33-.12,.1-.02,.2-.06,.3-.09,.09-.03,.18-.06,.28-.09,.05-.01,.1-.04,.15-.05l.24-.07c.07-.02,.12-.05,.19-.06l.22-.07c.18-.05,.36-.1,.53-.15,.06-.01,.12-.03,.17-.05,.17-.05,.35-.09,.51-.14,.02,0,.04-.01,.06-.01,.07-.02,.14-.04,.22-.06,.1-.02,.2-.05,.3-.08,.22-.05,.44-.1,.66-.15,.09-.02,.17-.03,.26-.06,.13-.02,.25-.05,.38-.08h.02c.7-.15,1.38-.27,2.06-.35,.1-.01,.19-.02,.28-.03,.23-.04,.46-.06,.7-.08,.02-.01,.05-.01,.07-.01l.37-.03c.13-.01,.25-.01,.38-.02,.16-.01,.32-.02,.47-.02,.09-.01,.17-.02,.26-.02,.12,0,.25-.01,.36-.01,.18-.01,.36-.01,.53-.01,.54,0,1.05,.01,1.57,.05,.18,.01,.36,.02,.53,.03,.23,.01,.46,.03,.69,.07,.29,.03,.57,.07,.85,.12,.25,.04,.51,.08,.75,.13,.1,.01,.2,.03,.3,.06l.3,.07c.1,.02,.2,.05,.3,.07,.42,.1,.83,.22,1.25,.35,.49,.15,.98,.33,1.45,.51,.22,.09,.43,.17,.64,.28,.14,.06,.29,.13,.43,.2,.33,.15,.64,.31,.96,.49,.15,.08,.3,.16,.44,.24,.46,.27,.91,.56,1.35,.86l.08,.06c.08,.06,.17,.12,.25,.17,.28,.21,.57,.42,.84,.64,.11,.08,.22,.17,.33,.27,.28,.23,.54,.45,.8,.7,.2,.19,.41,.37,.6,.57,.14,.14,.29,.29,.43,.44,.22,.23,.45,.48,.67,.72,.13,.15,.27,.3,.4,.47,.24,.27,.47,.56,.7,.85,.25,.31,.49,.64,.72,.97,.24,.33,.48,.66,.7,1.01,.38,.57,.75,1.15,1.11,1.77,.13,.21,.25,.42,.37,.64,.49,.86,.95,1.76,1.39,2.69,.09,.19,.17,.36,.25,.54,.05,.12,.1,.22,.14,.34,.15,.31,.28,.62,.41,.91l.16,.36c4.68,11.12,6.73,26.14,7.86,40.97,.13,1.63,.2,3.72,.2,6.12Z"/><path class="cls-8" d="M110.24,9.28V116.93H30.35V36.84c.07-.08,.13-.16,.2-.26l.03-.05c.05-.06,.1-.13,.15-.2,.01-.01,.02-.02,.04-.03,.02-.04,.05-.08,.08-.12,.01-.02,.03-.04,.04-.06,.02-.03,.04-.06,.07-.09,.01-.02,.02-.04,.04-.05v-.02l.03-.02s.07-.1,.11-.15c.05-.07,.09-.14,.14-.21,.01-.02,.04-.05,.05-.08,.04-.06,.09-.13,.14-.2l.04-.06s.02-.03,.04-.05c.05-.08,.1-.15,.14-.23,.01-.01,.02-.02,.03-.03l.08-.13s.04-.05,.05-.08c.01-.01,.03-.03,.04-.05,.01-.03,.03-.05,.04-.07,.01-.03,.04-.06,.05-.08l.04-.06s.02-.05,.04-.06l.07-.1,.14-.23c.09-.15,.18-.3,.28-.45,0-.01,0-.02,.01-.02,.04-.08,.09-.15,.13-.23l.04-.06c.07-.12,.14-.24,.2-.36l.02-.03s.02-.03,.03-.06c.07-.13,.14-.24,.21-.37l.03-.05v-.02c.09-.14,.16-.28,.24-.42l.02-.03s.01-.04,.02-.05c.08-.15,.16-.3,.23-.44,.08-.16,.16-.31,.24-.47s.16-.31,.24-.47c0-.01,.01-.02,.01-.03,.06-.12,.12-.23,.17-.36,.05-.09,.1-.2,.15-.29,.03-.06,.06-.1,.08-.16,.09-.19,.18-.38,.28-.57,.22-.48,.44-.97,.67-1.46,0-.01,.01-.04,.03-.06,.05-.12,.09-.22,.14-.34,.03-.06,.06-.12,.08-.17,.07-.14,.12-.27,.18-.41,.02-.05,.04-.09,.06-.14,.04-.09,.09-.2,.14-.3,.04-.09,.09-.2,.13-.3,.17-.41,.36-.83,.53-1.25,.02-.03,.04-.08,.06-.12t0-.02l.04-.1c.07-.17,.15-.35,.22-.52,.09-.21,.17-.42,.26-.62,.37-.89,.73-1.76,1.1-2.63,.07-.16,.13-.31,.2-.47,0-.01,0-.02,.01-.03,.01-.05,.03-.08,.05-.12,.05-.13,.11-.26,.16-.4,.04-.09,.09-.2,.13-.3,.03-.06,.06-.13,.09-.2,.05-.1,.09-.21,.14-.33l.04-.1s.02-.05,.03-.06c.06-.14,.12-.27,.17-.4l.04-.1c.07-.16,.14-.34,.22-.5,.07-.16,.15-.33,.22-.49h0s.03-.07,.04-.09l.02-.03s.04-.09,.07-.15c.01-.02,.02-.06,.04-.08,.03-.06,.05-.1,.07-.16,.04-.08,.08-.16,.12-.24,.11-.23,.22-.47,.33-.7,.1-.21,.2-.42,.3-.63,.06-.13,.12-.26,.18-.37,.04-.08,.08-.17,.12-.26,.05-.09,.1-.2,.15-.3,.05-.1,.1-.21,.16-.3l.15-.31c.32-.62,.65-1.22,.98-1.82,.06-.09,.12-.2,.17-.3,.1-.17,.21-.36,.32-.54,.05-.09,.1-.17,.15-.27l.41-.65c.05-.08,.11-.16,.16-.24,.04-.06,.07-.12,.11-.16,.04-.07,.09-.14,.13-.2,.05-.08,.11-.16,.17-.26,0-.01,.02-.02,.03-.05l.17-.24c.07-.09,.13-.19,.2-.28,.06-.08,.12-.17,.18-.26l.03-.05c.07-.08,.12-.16,.18-.24,.06-.08,.12-.16,.18-.23,.01-.02,.03-.03,.04-.06,.07-.08,.12-.15,.19-.23,.07-.09,.14-.17,.2-.27,.07-.08,.15-.17,.21-.26,.04-.05,.07-.08,.11-.13,.04-.03,.07-.08,.1-.13,.04-.03,.07-.07,.1-.12,.11-.13,.22-.26,.33-.37,.04-.05,.07-.08,.1-.12,.04-.05,.08-.09,.12-.13,.04-.05,.07-.08,.12-.12l.22-.24c.08-.07,.15-.15,.23-.23,.06-.06,.12-.13,.19-.19,.02-.02,.04-.05,.07-.06,0-.01,0-.01,0-.01,.07-.06,.12-.13,.19-.19,.08-.08,.17-.15,.25-.23,.04-.04,.08-.07,.12-.1,.04-.05,.09-.08,.13-.12,.04-.03,.07-.07,.11-.09,.44-.4,.91-.77,1.38-1.11,.03-.02,.06-.05,.09-.06l.2-.14c.07-.05,.12-.09,.19-.13,.02-.01,.04-.02,.06-.05,.05-.02,.09-.06,.14-.08,.07-.05,.13-.09,.2-.13,.06-.03,.11-.07,.16-.1,.03-.01,.05-.02,.08-.05,.08-.05,.15-.09,.23-.13,.27-.16,.55-.31,.83-.47,.09-.05,.17-.08,.25-.13,.11-.05,.21-.1,.32-.15,.07-.03,.14-.06,.21-.09,.03-.01,.05-.02,.08-.04,.09-.03,.18-.08,.28-.12,.09-.05,.2-.08,.3-.12,.09-.05,.2-.08,.3-.12,.09-.03,.2-.07,.29-.1,0-.01,.01-.01,.02-.01,.09-.03,.2-.07,.3-.1,2.71-.89,5.89-1.17,9.66-.63,.59,.08,1.16,.21,1.72,.37,5.27,1.49,9.1,6.13,12.75,9.5,2.86,2.62,5.6,4.49,8.86,3.49,.36-.1,.71-.24,1.07-.42,.1-.05,.2-.09,.3-.14,.1-.05,.2-.09,.3-.14,.4-.2,.8-.37,1.2-.56,.18-.08,.36-.16,.54-.23,.02-.01,.04-.02,.05-.02,.09-.05,.18-.08,.27-.12,.09-.05,.19-.08,.28-.12,.32-.14,.63-.27,.94-.38,.11-.05,.22-.09,.34-.14,.57-.22,1.15-.43,1.71-.63,.09-.04,.2-.07,.29-.1,.12-.03,.22-.07,.33-.12,.1-.02,.2-.06,.3-.09,.09-.03,.18-.06,.28-.09,.05-.01,.1-.04,.15-.05l.24-.07c.07-.02,.12-.05,.19-.06l.22-.07c.18-.05,.36-.1,.53-.15,.06-.01,.12-.03,.17-.05,.17-.05,.35-.09,.51-.14,.02,0,.04-.01,.06-.01,.07-.02,.14-.04,.22-.06,.1-.02,.2-.05,.3-.08,.22-.05,.44-.1,.66-.15,.09-.02,.17-.03,.26-.06,.13-.02,.25-.05,.38-.08h.02c.7-.15,1.38-.27,2.06-.35,.1-.01,.19-.02,.28-.03,.23-.04,.46-.06,.7-.08,.02-.01,.05-.01,.07-.01l.37-.03c.13-.01,.25-.01,.38-.02,.16-.01,.32-.02,.47-.02,.09-.01,.17-.02,.26-.02,.12,0,.25-.01,.36-.01,.18-.01,.36-.01,.53-.01,.54,0,1.05,.01,1.57,.05,.18,.01,.36,.02,.53,.03,.23,.01,.46,.03,.69,.07,.29,.03,.57,.07,.85,.12,.25,.04,.51,.08,.75,.13,.1,.01,.2,.03,.3,.06l.3,.07c.1,.02,.2,.05,.3,.07Z"/><path class="cls-6" d="M135.18,73.94c-.01,11.28-1.34,29.08-4.19,40.9-.65,2.71-1.39,5.1-2.21,7.04-.79,1.86-1.65,3.28-2.59,4.14-.02,.02-.04,.03-.06,.05-.03,.03-.07,.06-.1,.09-.07,.06-.14,.12-.22,.17l-8.38,.09v-58.86c-14.96-11.05-17.84-47.5-18.37-58.18,2.68-.58,5.15-.78,7.44-.65,1.3,.08,2.54,.26,3.72,.55,2.4,.58,4.56,1.58,6.52,2.94,.8,.55,1.56,1.17,2.29,1.84,1,.92,1.94,1.94,2.81,3.06,1.98,2.51,3.66,5.51,5.1,8.87l.13,.31,.02,.05c4.68,11.12,6.73,26.14,7.87,40.96,.13,1.66,.2,3.78,.2,6.21,0,.14,0,.28,0,.42Z"/><path class="cls-6" d="M40.72,15.68c-.8,6.91-2.48,18.23-5.69,29.04-.25,.86-.52,1.71-.79,2.56-1.12,3.48-2.41,6.86-3.89,9.98-1.46,3.08-3.1,5.89-4.95,8.29v60.57l-3.06-.02-13.07-.08h-.16s-.68-.9-1.67-2.63C4.76,118.71-.16,107.94,0,92.3c.1-9.36,1.03-25.81,8.05-37.45,.12-.19,.23-.38,.35-.57,.03-.04,.05-.09,.09-.14,.04-.06,.07-.11,.11-.17l.04-.07c.06-.1,.13-.2,.2-.3,.06-.09,.12-.18,.18-.26h0c.03-.06,.06-.1,.09-.15,.05-.07,.1-.14,.14-.21,.04-.06,.08-.12,.12-.18h0c.07-.1,.13-.2,.2-.29,.04-.06,.08-.12,.12-.17,.03-.05,.07-.09,.1-.13,.02-.03,.04-.06,.07-.09,.04-.06,.09-.12,.13-.17,.02-.03,.04-.06,.06-.08,.05-.07,.1-.13,.15-.2,0-.01,.02-.02,.03-.03,.08-.1,.15-.2,.23-.29,.06-.08,.13-.16,.2-.24l.03-.04c.06-.07,.12-.14,.18-.22,.05-.07,.11-.13,.17-.2,.02-.02,.04-.04,.05-.06,.07-.09,.15-.17,.22-.25,.05-.06,.11-.12,.16-.18,.06-.07,.12-.14,.19-.21,.04-.05,.09-.1,.13-.15,.06-.07,.13-.14,.19-.21,.05-.06,.11-.11,.16-.17,.02-.02,.04-.04,.06-.06,.05-.06,.11-.12,.17-.17,.06-.07,.13-.13,.2-.2h0c.06-.07,.13-.13,.19-.2,.07-.06,.13-.13,.2-.19l.03-.03c.06-.05,.11-.11,.17-.16,.07-.06,.14-.13,.2-.19,.07-.06,.13-.12,.2-.18h0c.07-.07,.14-.13,.21-.19,.07-.06,.13-.12,.2-.18l.03-.03c.06-.05,.13-.11,.19-.16,.06-.05,.13-.11,.19-.16,.05-.04,.11-.09,.16-.13,.24-.2,.48-.39,.73-.57,.43-.33,.88-.64,1.34-.94,.07-.04,.13-.09,.2-.13,.07-.04,.13-.08,.2-.13,.07-.04,.13-.08,.2-.12,.11-.07,.22-.13,.33-.2,.07-.04,.14-.08,.21-.12,.07-.04,.13-.08,.2-.12,.08-.05,.16-.09,.24-.13h0l.02-.02c.07-.04,.14-.07,.2-.11,.1-.05,.2-.1,.3-.16,.09-.05,.18-.09,.26-.13h.01c.08-.05,.15-.08,.23-.12l.11-.06c.08-.04,.15-.07,.23-.11,.02-.01,.05-.02,.07-.03,.09-.04,.18-.09,.28-.13,.09-.04,.19-.08,.28-.12,.03-.02,.07-.03,.1-.04,.07-.03,.15-.06,.22-.09,.01,0,.03-.01,.04-.02,.1-.04,.21-.09,.32-.13,.09-.04,.18-.07,.28-.11,.03-.01,.05-.02,.08-.03,.1-.04,.2-.08,.3-.11,.11-.04,.22-.08,.33-.12h.01c.11-.04,.22-.08,.33-.12,.12-.04,.23-.08,.35-.12,.06-.02,.12-.04,.17-.06,.06-.02,.11-.04,.17-.07,.05-.02,.1-.04,.15-.06,.05-.02,.1-.04,.15-.06,.05-.02,.1-.04,.15-.06,.05-.02,.1-.04,.15-.07,.05-.02,.09-.04,.14-.06,.1-.05,.21-.1,.31-.15,.05-.02,.1-.05,.15-.07,.1-.05,.19-.1,.28-.15h0c.09-.05,.19-.11,.28-.16,.09-.05,.19-.11,.28-.16,.09-.05,.19-.11,.28-.17l.03-.02c.14-.08,.27-.17,.4-.26h0s.08-.06,.12-.08c.05-.04,.11-.07,.16-.11,.08-.05,.16-.11,.23-.16,.05-.03,.1-.07,.14-.1,.14-.1,.27-.2,.4-.3,.08-.06,.15-.12,.23-.18,.07-.06,.14-.12,.22-.18l.02-.02c.08-.06,.15-.13,.23-.19l.03-.02c.06-.05,.12-.1,.18-.16l.09-.08s.09-.08,.13-.12c.03-.03,.07-.06,.1-.1,.07-.07,.14-.14,.22-.21,.07-.06,.13-.13,.2-.2,.08-.08,.15-.15,.23-.23,.07-.07,.14-.15,.22-.23h0c.05-.06,.11-.12,.16-.18,.03-.03,.06-.07,.09-.1,.04-.04,.08-.09,.12-.13,.04-.04,.08-.09,.12-.13,.04-.04,.08-.09,.12-.14,.04-.04,.08-.09,.12-.14,.03-.03,.06-.07,.09-.1,.06-.07,.13-.15,.19-.23,.01-.01,.02-.03,.03-.04,.06-.08,.12-.15,.19-.23,.09-.11,.18-.22,.27-.34,.07-.09,.13-.17,.2-.26l.09-.12s.06-.08,.09-.12c.01-.01,.02-.03,.03-.04,.03-.04,.06-.08,.08-.12,.01-.02,.03-.04,.04-.06,.02-.03,.05-.06,.07-.1,.01-.02,.02-.03,.03-.05l.02-.03v-.02s.08-.1,.12-.15c.05-.07,.1-.14,.15-.21,.02-.02,.03-.05,.05-.07,.04-.07,.09-.13,.13-.2l.04-.06s.02-.04,.04-.05c.05-.07,.1-.15,.15-.22l.02-.04,.08-.13s.03-.05,.05-.08l.04-.05,.04-.07s.03-.05,.05-.07c.01-.02,.02-.04,.04-.06,.01-.02,.03-.04,.04-.07,.02-.03,.04-.07,.06-.1,.05-.08,.09-.15,.14-.23,.09-.15,.19-.31,.28-.46v-.02c.06-.08,.1-.15,.15-.23l.03-.05c.07-.12,.14-.24,.21-.37l.02-.03,.03-.06c.07-.13,.14-.25,.21-.38l.02-.04v-.02c.09-.14,.16-.28,.24-.43l.02-.04,.02-.05c.08-.15,.16-.29,.23-.44,.08-.15,.16-.31,.24-.46,.08-.15,.16-.31,.23-.47,.08-.16,.15-.31,.23-.47,.06-.13,.12-.25,.18-.38,.09-.19,.18-.38,.27-.57,.23-.48,.45-.96,.67-1.45l.03-.07c.05-.11,.1-.22,.15-.33,.03-.06,.05-.12,.08-.18,.06-.14,.12-.27,.18-.41,.02-.05,.04-.09,.06-.14,.04-.1,.09-.2,.13-.3,.04-.1,.09-.2,.13-.3,.18-.41,.36-.83,.53-1.25,.02-.04,.04-.08,.05-.12v-.02h0s.03-.07,.05-.11c.07-.17,.15-.35,.22-.52,.09-.21,.17-.41,.26-.62,.37-.88,.74-1.75,1.11-2.63,.07-.15,.13-.31,.2-.46l.02-.04s.03-.08,.05-.12l.16-.39c.04-.1,.09-.2,.13-.3,.03-.07,.06-.13,.08-.2,.05-.11,.09-.22,.14-.33,.02-.04,.03-.07,.05-.11l.03-.06c.06-.13,.11-.26,.17-.39,.02-.04,.03-.07,.05-.11,.07-.17,.15-.33,.22-.5,.07-.17,.15-.33,.22-.49h0s.02-.06,.04-.09l.02-.04c.02-.05,.05-.1,.07-.15,.01-.03,.03-.06,.04-.08,.02-.05,.05-.11,.07-.16,.04-.08,.07-.16,.11-.24,.11-.24,.22-.47,.33-.71Z"/><path class="cls-15" d="M130.99,114.84c-.65,2.71-1.39,5.1-2.21,7.04-.79,1.86-1.65,3.28-2.59,4.14-.02,.02-.04,.03-.06,.05l-5.34-7.93v-52.23c-9.55-11.83-13.21-44.56-14.28-57.17,1.3,.08,2.54,.26,3.72,.55,2.4,.58,4.56,1.58,6.52,2.94l2.29,1.84c-4.22,20.14,5.88,51.14,5.88,51.14l2.52,20.64h0l3.55,29Z"/><path class="cls-15" d="M135.18,73.94c-.01,11.28-1.34,29.08-4.19,40.9-.65,2.71-1.39,5.1-2.21,7.04-.99-.97-1.67-1.66-1.67-1.66l.33-34.37h0l-4.24-22.55c-5.28-14.31-6.7-38.36-4.17-49.23,3.71,2.9,6.48,8.57,7.92,11.93l.13,.31,.02,.05c4.68,11.12,6.73,26.14,7.87,40.96,.13,1.66,.2,3.78,.2,6.21,0,.14,0,.28,0,.42Z"/><path class="cls-3" d="M72.92,98.56H40.62l.33-4.37,.62-8.13L47.67,5.06s0-.01,0-.01c.07-.06,.12-.13,.19-.19,.08-.08,.17-.15,.25-.23,.04-.04,.08-.07,.12-.1,.04-.05,.09-.08,.13-.12,.04-.03,.07-.07,.11-.09,.44-.4,.91-.77,1.38-1.11,.03-.02,.06-.05,.09-.06l.2-.14c.07-.05,.12-.09,.19-.13,.02-.01,.04-.02,.06-.05,.05-.02,.09-.06,.14-.08,.07-.05,.13-.09,.2-.13,.06-.03,.11-.07,.16-.1,.03-.01,.05-.02,.08-.05,.08-.05,.15-.09,.23-.13,.27-.16,.55-.31,.83-.47,.09-.05,.17-.08,.25-.13,.11-.05,.21-.1,.32-.15,.07-.03,.14-.06,.21-.09,.03-.01,.05-.02,.08-.04,.09-.03,.18-.08,.28-.12,.09-.05,.2-.08,.3-.12,.09-.05,.2-.08,.3-.12,.09-.03,.2-.07,.29-.1,0-.01,.01-.01,.02-.01,.09-.03,.2-.07,.3-.1,2.71-.89,5.89-1.17,9.66-.63,.59,.08,1.16,.21,1.72,.37l6.39,87.3,.1,1.45,.07,.9,.07,.92h0l.18,2.51,.04,.48,.17,2.25,.15,2.12Z"/><path class="cls-15" d="M36.89,24.53c-2,9.52-4.26,16.58-6.55,21.88-.02,.04-.04,.09-.06,.13-.09,.2-.17,.4-.26,.6-5.64,12.68-11.38,14.9-13.68,17.17l-7.09,61.71h-.16s-.68-.9-1.67-2.63C4.76,118.71-.16,107.94,0,92.3c.1-9.36,1.03-25.81,8.05-37.45,.12-.19,.23-.38,.35-.57,.03-.04,.05-.09,.09-.14l.02-.04c.19-.29,.48-.73,.87-1.29h0c.07-.1,.13-.2,.2-.29,.04-.06,.08-.12,.12-.17,.03-.05,.07-.09,.1-.13,.02-.03,.04-.06,.07-.09,.04-.06,.09-.12,.13-.17,.02-.03,.04-.06,.06-.08,.05-.07,.1-.13,.15-.2,0-.01,.02-.02,.03-.03,.08-.1,.15-.2,.23-.29,.06-.08,.13-.16,.2-.24l.03-.04c.06-.07,.12-.14,.18-.22,.05-.07,.11-.13,.17-.2,.02-.02,.04-.04,.05-.06,.07-.09,.15-.17,.22-.25,.05-.06,.11-.12,.16-.18,.06-.07,.12-.14,.19-.21,.04-.05,.09-.1,.13-.15,.06-.07,.13-.14,.19-.21,.05-.06,.11-.11,.16-.17,.02-.02,.04-.04,.06-.06,.05-.06,.11-.12,.17-.17,.06-.07,.13-.13,.2-.2h0c.06-.07,.13-.13,.19-.2,.07-.06,.13-.13,.2-.19l.03-.03c.06-.05,.11-.11,.17-.16,.07-.06,.14-.13,.2-.19,.07-.06,.13-.12,.2-.18h0c.07-.07,.14-.13,.21-.19,.07-.06,.13-.12,.2-.18l.03-.03c.06-.05,.13-.11,.19-.16,.06-.05,.13-.11,.19-.16,.05-.04,.11-.09,.16-.13,.24-.2,.48-.39,.73-.57,.43-.33,.88-.64,1.34-.94,.07-.04,.13-.09,.2-.13,.07-.04,.13-.08,.2-.13,.07-.04,.13-.08,.2-.12,.11-.07,.22-.13,.33-.2,.07-.04,.14-.08,.21-.12,.07-.04,.13-.08,.2-.12,.08-.05,.16-.09,.24-.13h0l.02-.02c.07-.04,.14-.07,.2-.11,.1-.05,.2-.1,.3-.16,.09-.05,.18-.09,.26-.13h.01c.08-.05,.15-.08,.23-.12l.11-.06c.08-.04,.15-.07,.23-.11,.02-.01,.05-.02,.07-.03,.09-.04,.18-.09,.28-.13,.09-.04,.19-.08,.28-.12,.03-.02,.07-.03,.1-.04,.07-.03,.15-.06,.22-.09,.01,0,.03-.01,.04-.02,.1-.04,.21-.09,.32-.13,.09-.04,.18-.07,.28-.11,.03-.01,.05-.02,.08-.03,.1-.04,.2-.08,.3-.11,.11-.04,.22-.08,.33-.12h.01c.11-.04,.22-.08,.33-.12,.12-.04,.23-.08,.35-.12,.06-.02,.12-.04,.17-.06,.06-.02,.11-.04,.17-.07,.05-.02,.1-.04,.15-.06,.05-.02,.1-.04,.15-.06,.05-.02,.1-.04,.15-.06,.05-.02,.1-.04,.15-.07,.05-.02,.09-.04,.14-.06,.1-.05,.21-.1,.31-.15,.05-.02,.1-.05,.15-.07,.1-.05,.19-.1,.28-.15h0c.09-.05,.19-.11,.28-.16,.09-.05,.19-.11,.28-.16,.09-.05,.19-.11,.28-.17l.03-.02c.14-.08,.27-.17,.4-.26h0s.08-.06,.12-.08c.05-.04,.11-.07,.16-.11,.08-.05,.16-.11,.23-.16,.05-.03,.1-.07,.14-.1,.14-.1,.27-.2,.4-.3,.08-.06,.15-.12,.23-.18,.07-.06,.14-.12,.22-.18l.02-.02c.08-.06,.15-.13,.23-.19l.03-.02c.06-.05,.12-.1,.18-.16l.09-.08s.09-.08,.13-.12c.03-.03,.07-.06,.1-.1,.07-.07,.14-.14,.22-.21,.07-.06,.13-.13,.2-.2,.08-.08,.15-.15,.23-.23,.07-.07,.14-.15,.22-.23h0c.05-.06,.11-.12,.16-.18,.03-.03,.06-.07,.09-.1,.04-.04,.08-.09,.12-.13,.04-.04,.08-.09,.12-.13,.04-.04,.08-.09,.12-.14,.04-.04,.08-.09,.12-.14,.03-.03,.06-.07,.09-.1,.06-.07,.13-.15,.19-.23,.01-.01,.02-.03,.03-.04,.06-.08,.12-.15,.19-.23,.09-.11,.18-.22,.27-.34,.07-.09,.13-.17,.2-.26l.03-.05c.05-.06,.1-.13,.14-.19,.01-.01,.02-.03,.03-.04,.03-.04,.06-.08,.08-.12,.01-.02,.03-.04,.04-.06,.02-.03,.05-.06,.07-.1,.01-.02,.02-.03,.03-.05l.02-.03v-.02s.08-.1,.12-.15c.05-.07,.1-.14,.15-.21,.02-.02,.03-.05,.05-.07,.04-.07,.09-.13,.13-.2l.04-.06s.02-.04,.04-.05c.05-.07,.1-.15,.15-.22l.02-.04,.08-.13s.03-.05,.05-.08l.04-.05,.04-.07s.03-.05,.05-.07c.01-.02,.02-.04,.04-.06,.01-.02,.03-.04,.04-.07,.02-.03,.04-.07,.06-.1,.05-.08,.09-.15,.14-.23,.09-.15,.19-.31,.28-.46v-.02c.06-.08,.1-.15,.15-.23l.03-.05c.07-.12,.14-.24,.21-.37l.02-.03,.03-.06c.07-.13,.14-.25,.21-.38l.02-.04v-.02c.09-.14,.16-.28,.24-.43l.02-.04,.02-.05c.08-.15,.16-.29,.23-.44,.08-.15,.16-.31,.24-.46,.08-.15,.16-.31,.23-.47,.08-.16,.15-.31,.23-.47,.06-.13,.12-.25,.18-.38,.09-.19,.18-.38,.27-.57,.23-.48,.45-.96,.67-1.45l.03-.07c.05-.11,.1-.22,.15-.33,.03-.06,.05-.12,.08-.18,.06-.14,.12-.27,.18-.41,.02-.05,.04-.09,.06-.14,.04-.1,.09-.2,.13-.3,.04-.1,.09-.2,.13-.3,.18-.41,.36-.83,.53-1.25,.02-.04,.04-.08,.05-.12v-.02Z"/><path class="cls-6" d="M8.05,89.41c.53-1.46,5.27-24.98,5.58-24.22,.31,.76-2.36,24.11-2.36,24.11l-3.22,.11Z"/><path class="cls-3" d="M104.13,98.56h-32.31l.04-.44,.3-3.93,.11-1.53,.12-1.46,.12-1.67v-.08l.26-3.4,.43-5.75,.36-4.69,2-26.48,.15-2.04,2.79-36.96c2.86,2.62,5.6,4.49,8.86,3.49,.36-.1,.71-.24,1.07-.42,.1-.05,.2-.09,.3-.14,.1-.05,.2-.09,.3-.14,.4-.2,.8-.37,1.2-.56,.18-.08,.36-.16,.54-.23,.02-.01,.04-.02,.05-.02,.09-.05,.18-.08,.27-.12,.09-.05,.19-.08,.28-.12,.32-.14,.63-.27,.94-.38,.11-.05,.22-.09,.34-.14,.57-.22,1.15-.43,1.71-.63,.09-.04,.2-.07,.29-.1,.12-.03,.22-.07,.33-.12,.1-.02,.2-.06,.3-.09,.09-.03,.18-.06,.28-.09,.05-.01,.1-.04,.15-.05l.24-.07c.07-.02,.12-.05,.19-.06l.22-.07c.18-.05,.36-.1,.53-.15,.06-.01,.12-.03,.17-.05,.17-.05,.35-.09,.51-.14,.02,0,.04-.01,.06-.01l6.18,84.46v.07l.32,4.3Z"/><g><path class="cls-18" d="M74.42,47.45s-.49-.6-.71-.71c-.22-.11-.65-.64-.7-.42-.06,.22,.29,.56,.27,.81-.02,.25-1.09,.65-1.08,.92,0,.27,.25,.91,.66,.83,.41-.07,1.45-.47,1.66-.3,.21,.17-.09-1.12-.09-1.12Z"/><path class="cls-19" d="M85.39,43.76c-.6,1.31-1.31,2.34-2.04,3.15-2.31,2.59-4.82,2.97-4.82,2.97-1,.06-2.45-.63-3.54-.92h0c-.48-.12-.69-.21-.69-.21,0,0-.18-.27-.13-1.01,.01-.16,.14-.42,.14-.42,0,0,3.88-.57,4.54-1.06,1.05-1.45,1.97-3.33,2.57-4.8,.51-1.24,.81-2.01,.97-2.1,1.35-.83,4.88,.34,3,4.4Z"/><path class="cls-5" d="M80.94,94.41h4.43c.32-.35-.09-3.73-.09-3.73,0,0-1.21-.74-1.42,.76-.21,1.5-1.54,1.98-2.24,2.16-.48,.13-.63,.55-.68,.81Z"/><path class="cls-5" d="M87.51,94.41h4.43c.32-.35-.09-3.73-.09-3.73,0,0-1.21-.74-1.42,.76-.21,1.5-1.54,1.98-2.24,2.16-.48,.13-.63,.55-.68,.81Z"/><path class="cls-5" d="M82.13,59.9s.2,3.99,.43,8.79c.32,6.52,1.18,22.69,1.18,22.69,0,0,.56,.77,1.81,.35,0,0,1.06-5.58,1.38-11.94v-.31c.31-6.48,.77-20.13,.77-20.13l-5.56,.55Z"/><path class="cls-11" d="M83.33,58.52s3.16,12.66,4.17,17.46c.72,3.42,2.75,15.41,2.75,15.41,0,0,.88,.43,1.63-.4,0,0,.76-12.25-.77-15.7-.81-1.83-.2-19.05-3.48-19.2-3.28-.15-4.29,2.44-4.29,2.44Z"/><path class="cls-18" d="M84.75,39.86c.48,.41,.95,.43,1.36,.29,.37-.13,.69-.39,.92-.63,.23-.24,.37-.45,.37-.45,0,0-.02-.04-.04-.11-.14-.39-.57-1.8-.38-4.07,0-.03-.14,.01-.35,.09-.63,.24-1.89,.81-1.94,.84h0s-.02,.48-.07,1.33c0,.08,0,.15-.01,.24,0,.1-.01,.21-.02,.32-.06,.89,.17,2.15,.17,2.15Z"/><path class="cls-20" d="M84.62,37.16c.94,.35,2.33-1.88,2.33-1.88-.1-.12-.21-.22-.32-.29-.63,.24-1.89,.81-1.94,.84h0s-.02,.48-.07,1.33Z"/><path class="cls-18" d="M84.3,35.71s.39,.22,.88,.33c.72,.16,1.66,.06,1.96-1.33,.5-2.35,1.14-3.76-.33-4.72-.79-.51-1.29-.54-1.63-.35-.3,.17-.47,.51-.6,.84-.29,.72-.86,4.82-.27,5.23Z"/><path class="cls-12" d="M83.41,30.66c.85,.98,2.03,.02,2.39,.28,.37,.26,.43,1.25,.44,1.56,0,.31,.03,.58,.53,.39,.08-.03,.14-.02,.18,.02,.21,.2-.06,1.15-.14,1.36,0,0-.11,.68,.14,1.01,.03,.04,.53,.39,1.73-2.56,.19-.46,.37-1.51,.08-2.51-.29-1.01-1.51-1.98-2.54-2.49-.39-.19-.67-.19-.9-.05-.37,.22-.57,.79-.77,1.36-.33,.96-1.14,1.65-1.14,1.65Z"/><path class="cls-17" d="M89.75,57.98c.07,.82-.43,1.26-.87,1.43,0,0-.41,.14-.93,.28-.51,.14-1.12,.27-1.56,.27-2.22-.03-4.08-1.08-4.08-1.08-.42,0-.61-1.04-.68-2.49-.05-.98-.04-2.15,0-3.32,.01-.38,.02-.75,.04-1.12,.03-.73,.06-1.44,.09-2.06,.03-.58,.06-1.1,.07-1.49,0,0,.33-3.31,.35-5.75,.02-1.75,.24-2.82,.4-3.08,.44-.76,1.73-1.24,1.99-1.3h.03c1.06,.95,2.48-.34,2.48-.34,.03,0,.06,.02,.1,.03,.03-.01,.19,0,.42,.06,.56,.13,1.52,.47,1.93,1.15,.2,.34,.25,1.4,.23,2.52-.03,1.56-.18,3.24-.18,3.24,.03,1.26,.04,2.75,.05,4.29,0,2.5,0,5.11,.05,7.01,.02,.7,.04,1.31,.08,1.77Z"/><path class="cls-18" d="M92.79,60.39s.76,1.93,.81,2.67c.03,.5-.04,2.48-.2,2.49-.22,0-.44-1.22-.52-1.54-.09-.32-.18-.57-.27-.57s.18,1.23,0,1.1c-.18-.14-.5-1.28-.52-1.55-.03-.27,.17-1.15,.07-1.5-.1-.35,.64-1.09,.64-1.09Z"/><g><path class="cls-19" d="M83.73,55.99c.03,.59,.17,1.14,.39,1.54l.35,.63c.09,.16,.22,.14,.3-.04l.42-1.06c.11-.29,.16-.65,.15-1.01-.04-.81-.13-2.38-.2-3.89-.06-1.22-.1-2.41-.11-3.14-.02-2.31,.16-9.66,.16-9.66l-.28,.02s-.68,2.84-1.02,6.72c-.08,.96-.15,1.97-.18,3.03,0,0-.12,4.2,.01,6.86Z"/><path class="cls-1" d="M87.38,38.03c0-.2-.48-.44-.48-.44,0,0-.66,1.47-1.75,1.5,0,0,.31,.97,.67,1.22,0,0,1.54-.85,1.55-2.28Z"/><path class="cls-1" d="M85.16,39.05s-.58-.55-.58-1.14c0,0-.33,.09-.49,.38,0,0-.18,.86,0,1.45,0,0,.83-.2,1.07-.68Z"/><path class="cls-5" d="M85.55,38.97l-.78-.3s-.1,.01-.1,.22c0,.2,.22,.8,.32,.85,.1,.05,.75-.35,.56-.77Z"/><path class="cls-17" d="M87.38,37.96c0-.2-.38-.6-.38-.6,0,0-.75,1.42-1.84,1.44,0,0,.31,.97,.67,1.22,0,0,1.51-.9,1.55-2.06Z"/><path class="cls-17" d="M85.16,38.8s-.58-.5-.58-1.09c0,0-.35,.25-.51,.54,0,0-.15,.64,.03,1.24,0,0,.83-.2,1.07-.68Z"/></g><path class="cls-19" d="M90.55,61.11s-.88,.91-2.45,1.01c-.61,.04-2.45-.22-2.45-.22l.03-7.61,1.36-15.6,.69-.05c-.05-.22-.09-.44-.13-.64,.56,.13,1.52,.47,1.93,1.15,.18,.29,.23,1.12,.23,2.07l.37,9.43,.26,6.44,.16,4.03Z"/><path class="cls-19" d="M83.33,53.27v8.03l-1.91-.43s-.12-12.3-.12-15.24c0-2.93,1.09-6.28,1.09-6.28,0,0,.53-.58,1.47-1.1l-.53,15.01Z"/><path class="cls-5" d="M90.41,57.65s-2.16-10.01-2.17-10.52l1.39,.91,.5,2.6,.28,7.01h0Z"/><path class="cls-5" d="M84.22,38.06s-.67,4.7-.72,10.65c-.01,1.37-.13,4.15-.16,4.96,0,0-.87-6.73-.89-8.68,0,0,.56-.66,.56-.89s-.61-.8-.61-.8c0,0,.46-3.81,.72-4.29,.32-.58,1.1-.95,1.1-.95Z"/><path class="cls-19" d="M89.33,38.88s1.09,.78,1.96,6.59c.65,4.38,1.9,15.55,1.9,15.55l-1.06,.7s-3.87-14.28-4.42-16.29c-.55-2.01,1.62-6.55,1.62-6.55Z"/><path class="cls-5" d="M87.2,37.59s-1.8,12.13-1.51,16.7c0,0,.66-4.88,2.26-8.88,0,0-.58-.82-.55-1.13,0,0,.43-.21,.85-.07,0,0-.14-5.5-.32-6.13-.11-.38-.72-.5-.72-.5Z"/><path class="cls-2" d="M84.73,34.44c-.02,.19-.11,.33-.2,.3-.09-.03-.13-.21-.11-.4,.02-.19,.11-.33,.2-.3,.09,.03,.13,.21,.11,.4Z"/></g><g><path class="cls-19" d="M55.77,37.41s2.66-.04,3.3,1.41c.64,1.44,1.49,10.6,1.31,11.79-.42,2.76-2.1-1.07-2.86-2.65-.76-1.58-1.75-10.55-1.75-10.55Z"/><polygon class="cls-19" points="60.32 48.1 61.03 57.34 58.98 57.34 58.42 50.14 60.32 48.1"/><path class="cls-5" d="M53.98,94.47s-.1-1.23-.33-1.96c-.23-.73-1.67-.27-1.67-.27,0,0-.29,.4-.35,2.26l2.35-.03Z"/><path class="cls-5" d="M58.91,94.45c-.34-.33-.15-2.82-.15-2.82,0,0,1.58-2.04,1.8-.48,.22,1.56,1.51,2.26,2.24,2.45,.51,.13,.66,.58,.71,.85h-4.6Z"/><path class="cls-5" d="M55.63,76.34c.06,.57,.11,1.04,.12,1.38,.15,4.62,2.42,15.19,2.82,15.43,.63,.38,1.62-.43,2.14-.69,.21-.11,.36-.46,.31-.81-1.12-8.32-1.54-20.29-1.69-27.38-.08-3.57-.46-6.04-.46-6.04,0,0-5.54-2.38-5.57,.63-.03,2.66,1.83,13.1,2.33,17.48Z"/><path class="cls-5" d="M55.63,76.34l3.7-12.08c-.08-3.57-.46-6.04-.46-6.04,0,0-5.54-2.38-5.57,.63-.03,2.66,1.83,13.1,2.33,17.48Z"/><path class="cls-5" d="M56.87,58.87l-2.93,34.13s-1.29,.5-2.29,.1c0,0-.86-18.15-.79-22.54,.07-4.39-.62-11.74,.16-12.55,.77-.81,5.84,.86,5.84,.86Z"/><path class="cls-17" d="M50.82,50.1l-.36,8.19c-.01,.31,.11,.59,.29,.68,.41,.19,.88,.32,1.79,.63,.85,.28,2,.54,3.41,.55,2.24,.02,3.09-1.22,3.09-1.22,.1,0-.05-.75-.18-4.34-.05-1.22-.09-2.76-.12-4.71-.03-1.75-.05-3.84-.05-6.31,0-2.97-2.86-6.17-2.92-6.17h0c0,.43-.42,1.22-1.07,1.29-.77,.08-1.72-.81-1.72-1.52,0,0-.13,.21-.18,.35-.3,.82-1.25,4.04-1.68,7.3-.06,.48-.11,.99-.15,1.53v.02c0,.1-.02,.2-.02,.3v.05c0,.09-.01,.18-.02,.27,0,.03,.01,.07,0,.08-.15,.06-.57,2.32-.09,2.3,.15,0-.01,.48-.02,.73v0Z"/><path class="cls-18" d="M55.79,36.76v.44s.07,1.38-.99,1.58c-1.06,.2-1.86-.54-1.83-1.61,.1-.83,.2-1.39,.21-2.08,0-.25,0-.52-.04-.83l2.05-.07,.6,.16v2.39Z"/><polygon class="cls-19" points="54.24 53.49 54.27 60.94 50.17 60.17 50.47 42.23 52.53 41.2 53.46 45.31 54.24 53.49"/><path class="cls-4" d="M55.8,34.36v1.71c-.23,.16-.63,.17-.94,.09-.93-.27-1.37-.78-1.69-1.58,0-.25,0,0-.03-.3l2.05-.07,.6,.16Z"/><path class="cls-18" d="M52.99,33.74c.24,2.06,1.89,1.99,2.61,1.86,.2-.04,.33-.08,.33-.08,.23-.1,.35-.67,.41-1.42,.12-1.49-.03-3.67-.19-4.23-.24-.84-.68-1.75-2.34-1.09-1.66,.66-1.12,2.32-.81,4.96Z"/><path class="cls-5" d="M56.66,27.91s-.73-.09-1.6-.69c-.7-.49-1.59,.05-1.87,.29,0-.07,.03-.18,.07-.28,0,0-.13,.15-.15,.35-.01,.02-.02,.03-.02,.03,0,0-.15-.04-.24,.02,0,0,.07-.02,.09,.05,0,0,0,.01,.01,.02-1.09,.85-1.2,3.63-.84,4.28,.42,.77,.99,2.36,.99,2.36,0,0,.13-.25,.05-.93-.08-.68,.29-.68,.75-.99,.46-.31,.08-1.18,.48-1.7,.4-.53,1.89-.22,1.87-.62,.55-.32,.41-2.09,.41-2.19Z"/><g><path class="cls-1" d="M52.64,37.07c0-.22,.54-.49,.54-.49,0,0,.74,1.65,1.96,1.68,0,0-.35,1.09-.76,1.37,0,0-1.72-.96-1.74-2.55Z"/><path class="cls-1" d="M55.14,38.22s.65-.62,.65-1.28c0,0,.37,.1,.55,.42,0,0,.2,.96,0,1.63,0,0-.93-.23-1.2-.77Z"/><path class="cls-13" d="M54.7,38.12l.88-.34s.11,.02,.11,.25c0,.23-.25,.9-.35,.95-.11,.05-.84-.4-.63-.86Z"/><path class="cls-17" d="M52.64,36.99c0-.22,.43-.67,.43-.67,0,0,.85,1.59,2.06,1.62,0,0-.35,1.09-.76,1.37,0,0-1.7-1.01-1.74-2.32Z"/><path class="cls-17" d="M55.14,37.93s.65-.56,.65-1.22c0,0,.39,.28,.58,.6,0,0,.17,.72-.03,1.39,0,0-.93-.23-1.2-.77Z"/><path class="cls-14" d="M56.74,57.21c-.03,.66-.19,1.28-.44,1.73l-.39,.71c-.1,.18-.25,.16-.33-.05l-.47-1.19c-.13-.32-.18-.73-.16-1.14,.05-.91,.14-2.67,.22-4.36,.06-1.37,.11-2.71,.12-3.52,.03-2.59-.18-10.84-.18-10.84l.31,.03s.76,3.19,1.15,7.54c.09,1.07,.17,2.21,.2,3.39,0,0,.14,4.71-.02,7.69Z"/></g><polygon class="cls-19" points="58.13 52.74 58.42 61.9 59.98 61.9 59.06 41.59 56.38 38.38 57.33 44.84 58.13 52.74"/><path class="cls-5" d="M56.19,37.1s1.04,7.38,1.59,12.36c.15,1.35,.32,2.48,.35,3.28,0,0-.18-6.76-.16-8.71,0,0-.75-.64-.75-.86s.8-.83,.8-.83c0,0-.51-4.16-.78-4.62-.28-.46-1.04-.62-1.04-.62Z"/><path class="cls-5" d="M50.94,46.72s.66,3.62,2.54,4.6l-3.82-.7s-.16-3.61,0-3.67c.16-.06,1.27-.22,1.27-.22Z"/><path class="cls-19" d="M52.56,37.41s-1.9-.23-2.68,1.06c-1.05,1.76-2.24,12.27-1.78,14.33,.28,1.26,3.66,.38,5.55,.47v-2.01s-2.99-1.11-2.99-2.59c0-.99,1.91-11.26,1.91-11.26Z"/><path class="cls-5" d="M52.72,36.79s1.8,12.13,1.51,16.7c0,0-.66-4.88-2.26-8.88,0,0,.58-.82,.55-1.13,0,0-.43-.21-.85-.07,0,0,.05-5.23,.31-5.78,.26-.55,.73-.84,.73-.84Z"/><path class="cls-18" d="M53.65,51.66s1.31-.44,1.51-.34c.75,.38,1.23,1.42,1.23,1.65s-2.74,0-2.74,0v-1.31Z"/></g><g><rect class="cls-6" x="79.02" y="62.97" width="13.83" height="31.44"/><rect class="cls-6" x="77.82" y="52.8" width="16.21" height="11.02"/><polygon class="cls-15" points="77.82 63.81 79.02 66.58 92.85 66.58 94.04 63.81 77.82 63.81"/><polygon class="cls-15" points="78.32 94.41 78.71 92.46 93.15 92.46 93.47 94.41 78.32 94.41"/><g><path class="cls-15" d="M80.18,52.8h-1.17c0-.52,.26-.94,.58-.94s.58,.42,.58,.94Z"/><path class="cls-15" d="M79.65,52.13h-.11s.12-2.92,1.61-5.53l.08,.12c-1.46,2.57-1.58,5.38-1.58,5.41Z"/><path class="cls-15" d="M80.94,47.06h0c-.07-.11-.07-.28,0-.39l.25-.41c.07-.11,.17-.11,.24,0h0c.07,.11,.07,.28,0,.39l-.25,.41c-.07,.11-.17,.11-.24,0Z"/></g></g><rect class="cls-15" x="33.37" y="94.19" width="76.89" height="32.15"/><g><rect class="cls-6" x="50.49" y="62.97" width="13.83" height="31.44"/><rect class="cls-6" x="49.29" y="52.8" width="16.21" height="11.02"/><polygon class="cls-15" points="49.29 63.81 50.49 66.58 64.32 66.58 65.51 63.81 49.29 63.81"/><polygon class="cls-15" points="49.79 94.41 50.18 92.46 64.62 92.46 64.94 94.41 49.79 94.41"/><path class="cls-11" d="M63.85,52.8h1.17c0-.52-.26-.94-.58-.94s-.58,.42-.58,.94Z"/><path class="cls-11" d="M64.38,52.13s-.12-2.85-1.58-5.41l.08-.12c1.48,2.61,1.6,5.49,1.61,5.52h-.11Z"/><path class="cls-11" d="M63.09,47.06h0c.07-.11,.07-.28,0-.39l-.25-.41c-.07-.11-.17-.11-.24,0h0c-.07,.11-.07,.28,0,.39l.25,.41c.07,.11,.17,.11,.24,0Z"/></g><g><g><polygon class="cls-11" points="77.01 86.81 76.82 87 76.55 86.29 76.75 86.1 77.01 86.81"/><path class="cls-11" d="M52.57,126.34s2.86-12.51,3.44-16.43c.5-3.36,1.36-6.87,2.91-7.86,.87-.56,1.81-.96,2.76-1.22,.12-.22,.37-.61,.84-.93,.01-.55,0-1.12-.03-1.6h0c-.48-.58-.94-1.48-1.2-2.85-.25-.44-.47-1.14-.4-1.45,.02-.1,.05-.16,.08-.2-.04-.1-.07-.21-.11-.32-.27-.35-.23-1.23-.39-1.62-.2-.47-.43-1.67-.24-2.05,.2-.38,.28-.88,.33-1.93,.05-1.05,.52-.57,.92-.71,.4-.14,.32-.34,.51-1.1,.2-.76,.63-.7,1.3-.48,.67,.22,.53-.48,1.22-.64,.69-.16,.97,.89,1.58,.9,.61,0,.72,1.1,1.27,1.67,.55,.57,0,2.47,0,2.47,.03,.43,0,0,.27,.74,.27,.74-.2,1.19-.03,2.14,.17,.95-.45,.86-.45,.86h0v.04c.1-.07,.23-.08,.3,.23,.1,.46-.45,1.83-.78,1.83-.23,1.25-.56,2.02-.92,2.51-.02,.32-.04,.81-.04,1.37,.44,.23,.76,.53,.96,.78,1.05-.76,3.89-3.12,4.79-6.82,1.1-4.56,2.3-8.74,2.3-8.74,0,0-.46-2.7-.18-3.76l-.7-1.6-.31,.3-.2-.52,.24-.23c-.11-.14-.2-.31-.27-.51-.35-.93-.17-2.15,.42-2.72s1.34-.27,1.69,.67c.07,.2,.12,.41,.15,.62l.24-.23,.2,.52-.31,.3,.54,1.65c.2-.12,.35-.15,.41-.01,.47,.99,.53,1.88,.44,2.63l1.16,3.53-1.26,1.22-.7-1.59c-.04,.29-.06,.49-.06,.49,0,0,1.34,8.36-.95,13.88-1,2.41-2.51,5.58-3.9,8.4,.12,6.96-.32,18.05-.32,18.05h-12.08s.01-2.24,.06-5.36l-1.51,5.36-4.01,.32Z"/></g><g><polygon class="cls-11" points="38.61 86.81 38.41 87 38.14 86.29 38.34 86.1 38.61 86.81"/><path class="cls-11" d="M20.51,102.05c.87-.56,1.81-.96,2.76-1.22,.12-.22,.37-.61,.84-.93,.01-.55,0-1.12-.03-1.6h0c-.48-.58-.94-1.48-1.2-2.85-.25-.44-.47-1.14-.4-1.45,.02-.1,.05-.16,.08-.2-.04-.1-.07-.21-.11-.32-.27-.35-.23-1.23-.39-1.62-.2-.47-.43-1.67-.24-2.05,.2-.38,.28-.88,.33-1.93,.05-1.05,.52-.57,.92-.71,.4-.14,.32-.34,.51-1.1,.2-.76,.63-.7,1.3-.48s.53-.48,1.22-.64c.69-.16,.97,.89,1.58,.9,.61,0,.72,1.1,1.27,1.67,.55,.57,0,2.47,0,2.47,.03,.43,0,0,.27,.74,.27,.74-.2,1.19-.03,2.14,.17,.95-.45,.86-.45,.86h0v.04c.1-.07,.23-.08,.3,.23,.1,.46-.45,1.83-.78,1.83-.23,1.25-.56,2.02-.92,2.51-.02,.32-.04,.81-.04,1.37,.44,.23,.76,.53,.96,.78,1.05-.76,3.89-3.12,4.79-6.82,1.1-4.56,2.3-8.74,2.3-8.74,0,0-.46-2.7-.18-3.76l-.7-1.6-.31,.3-.2-.52,.24-.23c-.11-.14-.2-.31-.27-.51-.35-.93-.17-2.15,.42-2.72s1.34-.27,1.69,.67c.07,.2,.12,.41,.15,.62l.24-.23,.2,.52-.31,.3,.54,1.65c.19-.12,.35-.15,.41-.01,.47,.99,.53,1.88,.44,2.63l1.16,3.53-1.26,1.22-.7-1.59c-.04,.29-.06,.49-.06,.49,0,0,1.34,8.36-.95,13.88-1,2.41-2.51,5.58-3.9,8.4,.12,6.96-.32,18.05-.32,18.05h-12.08s.01-2.24,.06-5.36c0,0-.72-17.61,.82-18.61Z"/><g><path class="cls-11" d="M23.61,100.58s-2.96-4.29-2.98-8.77c-.01-4.47-.19-8.66-.19-8.66l-1.44-.15s-2.84,6.43-2.01,12.34c.83,5.91,3.15,16.73,3.15,16.73l3.46-11.49Z"/><path class="cls-11" d="M20.44,83.15s1.25-2.73,.84-3.51c-.4-.78-.28-3.6-.95-3.51-.64,.08-1.28,2.96-1.22,3.7,.06,.74-.1,3.17-.1,3.17l1.44,.15Z"/><path class="cls-11" d="M21.32,80.52s.59-2.47,.41-2.53c-.18-.06-.37,.41-.45,.67-.12,.39-.21,.44-.24,.48-.18,.29,.29,1.37,.29,1.37Z"/></g></g><g><polygon class="cls-11" points="97.9 86.81 97.7 87 97.43 86.29 97.63 86.1 97.9 86.81"/><path class="cls-11" d="M79.8,102.05c.87-.56,1.81-.96,2.76-1.22,.12-.22,.37-.61,.84-.93,.01-.55,0-1.12-.03-1.6h0c-.48-.58-.94-1.48-1.2-2.85-.25-.44-.47-1.14-.4-1.45,.02-.1,.05-.16,.08-.2-.04-.1-.07-.21-.11-.32-.27-.35-.23-1.23-.39-1.62-.2-.47-.43-1.67-.24-2.05,.2-.38,.28-.88,.33-1.93,.05-1.05,.52-.57,.92-.71,.4-.14,.32-.34,.51-1.1,.2-.76,.63-.7,1.3-.48,.67,.22,.53-.48,1.22-.64,.69-.16,.97,.89,1.58,.9,.61,0,.72,1.1,1.27,1.67,.55,.57,0,2.47,0,2.47,.03,.43,0,0,.27,.74,.27,.74-.2,1.19-.03,2.14,.17,.95-.45,.86-.45,.86h0v.04c.1-.07,.23-.08,.3,.23,.1,.46-.45,1.83-.78,1.83-.23,1.25-.56,2.02-.92,2.51-.02,.32-.04,.81-.04,1.37,.44,.23,.76,.53,.96,.78,1.05-.76,3.89-3.12,4.79-6.82,1.1-4.56,2.3-8.74,2.3-8.74,0,0-.46-2.7-.18-3.76l-.7-1.6-.31,.3-.2-.52,.24-.23c-.11-.14-.2-.31-.27-.51-.35-.93-.17-2.15,.42-2.72s1.34-.27,1.69,.67c.07,.2,.12,.41,.15,.62l.24-.23,.2,.52-.31,.3,.54,1.65c.2-.12,.35-.15,.41-.01,.47,.99,.53,1.88,.44,2.63l1.16,3.53-1.26,1.22-.7-1.59c-.04,.29-.06,.49-.06,.49,0,0,1.34,8.36-.95,13.88-1,2.41-2.51,5.58-3.9,8.4,.12,6.96-.32,18.05-.32,18.05h-12.08s.01-2.24,.06-5.36c0,0-.72-17.61,.82-18.61Z"/><g><path class="cls-11" d="M82.9,100.58s-2.96-4.29-2.98-8.77c-.01-4.47-.19-8.66-.19-8.66l-1.44-.15s-2.84,6.43-2.01,12.34c.83,5.91,3.15,16.73,3.15,16.73l3.46-11.49Z"/><path class="cls-11" d="M79.73,83.15s1.25-2.73,.84-3.51c-.4-.78-.28-3.6-.95-3.51-.64,.08-1.28,2.96-1.22,3.7,.06,.74-.1,3.17-.1,3.17l1.44,.15Z"/><path class="cls-11" d="M80.61,80.52s.59-2.47,.41-2.53-.37,.41-.45,.67c-.12,.39-.21,.44-.24,.48-.18,.29,.29,1.37,.29,1.37Z"/></g></g><g><path class="cls-11" d="M113.74,102.7c.61-2.37-2.15-4.88-2.58-6.73-.42-1.85,2.41-4.81,.11-10.02-.6-1.35-1.85-1.29-2.62-1.09-.39,.1-.8,.13-1.19,.06-2.07-.36-3.33,2.76-3.61,5.08-.16,1.33-.12,2.72,.79,3.59,.06,.13,.13,.22,.21,.29,.27,5.35,1.41,4.59,1.41,4.59,.07,.75,.04,1.7,0,2.52-.88,.15-1.76,.4-2.57,.75,0,0-7.62-2.73-9.61-5.86-1.99-3.13-3.96-5.87-3.96-5.87,0,0-.25-2.52-.73-3.24l.21-1.76,.33,.06,.04-.55-.25-.05c.06-.18,.09-.38,.11-.59,.07-.99-.37-1.89-.98-2.01-.62-.12-1.18,.59-1.25,1.58-.02,.21,0,.42,.02,.61l-.25-.05-.04,.55,.33,.06-.06,1.7c-.19,.02-.32,.08-.35,.24-.16,1.11,0,1.89,.25,2.45l-.14,3.64,1.33,.26,.21-1.75c.1,.21,.17,.37,.17,.37,0,0,.85,7.77,4.04,10.98,2.57,2.58,7.2,6.28,8.93,7.64-.04,.52-.09,.99-.16,1.37-.73,3.88,2.36,14.5,2.94,14.55h10.57s-.56-22.04-1.61-23.35Z"/><polygon class="cls-11" points="87.85 93.5 88.06 93.55 88.11 92.79 87.91 92.75 87.85 93.5"/></g><g><path class="cls-16" d="M58.29,105.32c-1.13-3.36-2.99-3.61-2.99-3.61-.82-.35-1.69-.6-2.57-.75-.05-.81-.07-1.76,0-2.52,0,0,1.14,.77,1.41-4.59,.08-.07,.15-.16,.21-.29,.91-.87,.95-2.26,.79-3.59-.28-2.31-1.53-5.44-3.61-5.08-.4,.07-.8,.04-1.19-.06-.77-.19-2.03-.26-2.62,1.09-2.3,5.21,.53,8.18,.11,10.02-.42,1.85-3.19,4.35-2.58,6.73-1.05,1.31-1.61,23.35-1.61,23.35h16.17s-.31-17.16-1.5-20.73Z"/><path class="cls-16" d="M45.24,102.7s-4.76,9.48-4.23,12.4c.52,2.92,3.98,6.74,4.89,6.06,.91-.67-.65-18.46-.65-18.46Z"/><path class="cls-16" d="M46.83,89.31s-.37,2.1-1.94,2.55c-1.57,.45-.8,2.47-1.05,3.82-.24,1.35-1.54,1.59-1.29,3.59,.24,2-1.68,3.76,1.36,7.75,3.04,3.99,5.79-11.51,5.79-11.51l-1.05-5.73-1.83-.47Z"/></g><g><path class="cls-16" d="M83.39,105.32c-1.13-3.36-2.99-3.61-2.99-3.61-.82-.35-1.69-.6-2.57-.75-.05-.81-.07-1.76,0-2.52,0,0,1.14,.77,1.41-4.59,.08-.07,.15-.16,.21-.29,.91-.87,.95-2.26,.79-3.59-.28-2.31-1.53-5.44-3.61-5.08-.4,.07-.8,.04-1.19-.06-.77-.19-2.03-.26-2.62,1.09-2.3,5.21,.53,8.18,.11,10.02-.42,1.85-3.19,4.35-2.58,6.73-1.05,1.31-1.61,23.35-1.61,23.35h16.17s-.31-17.16-1.5-20.73Z"/><path class="cls-16" d="M70.35,102.7s-4.76,9.48-4.23,12.4c.52,2.92,3.98,6.74,4.89,6.06,.91-.67-.65-18.46-.65-18.46Z"/><path class="cls-16" d="M71.93,89.31s-.37,2.1-1.94,2.55c-1.57,.45-.8,2.47-1.05,3.82-.24,1.35-1.54,1.59-1.29,3.59,.24,2-1.68,3.76,1.36,7.75s5.79-11.51,5.79-11.51l-1.05-5.73-1.83-.47Z"/></g><g><path class="cls-9" d="M33.14,102.8c-.61-2.37,2.15-4.88,2.58-6.73,.42-1.85-2.41-4.81-.11-10.02,.6-1.35,1.85-1.29,2.62-1.09,.39,.1,.8,.13,1.19,.06,2.07-.36,3.33,2.76,3.61,5.08,.16,1.33,.12,2.72-.79,3.59-.06,.13-.13,.22-.21,.29-.27,5.35-1.41,4.59-1.41,4.59-.07,.75-.04,1.7,0,2.52,.88,.15,1.76,.4,2.57,.75,0,0,7.62-2.73,9.61-5.86,1.99-3.13,3.96-5.87,3.96-5.87,0,0,.25-2.52,.73-3.24l-.21-1.76-.33,.06-.04-.55,.25-.05c-.06-.18-.09-.38-.11-.59-.07-.99,.37-1.89,.98-2.01,.62-.12,1.18,.59,1.25,1.58,.02,.21,0,.42-.02,.61l.25-.05,.04,.55-.33,.06,.06,1.7c.19,.02,.32,.08,.35,.24,.16,1.11,0,1.89-.25,2.45l.14,3.64-1.33,.26-.21-1.75c-.1,.21-.17,.37-.17,.37,0,0-.85,7.77-4.04,10.98-2.57,2.58-9.12,6.26-8.77,9.01,.51,3.97-.44,14.55-.44,14.55h-13.07s.56-22.04,1.61-23.35Z"/><polygon class="cls-9" points="59.03 93.61 58.82 93.65 58.76 92.9 58.97 92.86 59.03 93.61"/><path class="cls-9" d="M33.14,102.8s-4.76,9.48-4.23,12.4c.52,2.92,3.98,6.74,4.89,6.06,.91-.67-.65-18.46-.65-18.46Z"/><path class="cls-9" d="M34.72,89.41s-.37,2.1-1.94,2.55c-1.57,.45-.8,2.47-1.05,3.82-.24,1.35-1.54,1.59-1.29,3.59s-1.68,3.76,1.36,7.75c3.04,3.99,5.79-11.51,5.79-11.51l-1.05-5.73-1.83-.47Z"/></g><g><path class="cls-9" d="M124.59,102.8c.61-2.37-2.15-4.88-2.58-6.73-.42-1.85,2.41-4.81,.11-10.02-.6-1.35-1.85-1.29-2.62-1.09-.39,.1-.8,.13-1.19,.06-2.07-.36-3.33,2.76-3.61,5.08-.16,1.33-.12,2.72,.79,3.59,.06,.13,.13,.22,.21,.29,.27,5.35,1.41,4.59,1.41,4.59,.07,.75,.04,1.7,0,2.52-.88,.15-1.76,.4-2.57,.75,0,0-7.62-2.73-9.61-5.86s-3.96-5.87-3.96-5.87c0,0-.25-2.52-.73-3.24l.21-1.76,.33,.06,.04-.55-.25-.05c.06-.18,.09-.38,.11-.59,.07-.99-.37-1.89-.98-2.01s-1.18,.59-1.25,1.58c-.02,.21,0,.42,.02,.61l-.25-.05-.04,.55,.33,.06-.06,1.7c-.19,.02-.32,.08-.35,.24-.16,1.11,0,1.89,.25,2.45l-.14,3.64,1.33,.26,.21-1.75c.1,.21,.17,.37,.17,.37,0,0,.85,7.77,4.04,10.98,2.57,2.58,9.12,6.26,8.77,9.01-.51,3.97,.44,14.55,.44,14.55h13.07s-.56-22.04-1.61-23.35Z"/><polygon class="cls-9" points="98.7 93.61 98.91 93.65 98.96 92.9 98.76 92.86 98.7 93.61"/><path class="cls-9" d="M124.59,102.8s4.76,9.48,4.23,12.4c-.52,2.92-3.98,6.74-4.89,6.06-.91-.67,.65-18.46,.65-18.46Z"/><path class="cls-9" d="M123,89.41s.37,2.1,1.94,2.55c1.57,.45,.8,2.47,1.05,3.82s1.54,1.59,1.29,3.59,1.68,3.76-1.36,7.75-5.79-11.51-5.79-11.51l1.05-5.73,1.83-.47Z"/></g><g><polygon class="cls-5" points="80.86 86.81 81.05 87 81.32 86.29 81.12 86.1 80.86 86.81"/><path class="cls-5" d="M105.3,126.34s-2.53-12.73-3.11-16.65c-.5-3.36-1.69-6.65-3.23-7.64-.87-.56-1.81-.96-2.76-1.22-.12-.22-.37-.61-.84-.93-.01-.55,0-1.12,.03-1.6h0c.48-.58,.94-1.48,1.2-2.85,.25-.44,.47-1.14,.4-1.45-.02-.1-.05-.16-.08-.2,.04-.1,.07-.21,.11-.32,.27-.35,.23-1.23,.39-1.62,.2-.47,.43-1.67,.24-2.05-.2-.38-.28-.88-.33-1.93-.05-1.05-.52-.57-.92-.71-.4-.14-.32-.34-.51-1.1-.2-.76-.63-.7-1.3-.48-.67,.22-.53-.48-1.22-.64-.69-.16-.97,.89-1.58,.9-.61,0-.72,1.1-1.27,1.67-.55,.57,0,2.47,0,2.47-.03,.43,0,0-.27,.74-.27,.74,.2,1.19,.03,2.14-.17,.95,.45,.86,.45,.86h0v.04c-.1-.07-.23-.08-.3,.23-.1,.46,.45,1.83,.78,1.83,.23,1.25,.56,2.02,.92,2.51,.02,.32,.04,.81,.04,1.37-.44,.23-.76,.53-.96,.78-1.05-.76-3.89-3.12-4.79-6.82-1.1-4.56-2.3-8.74-2.3-8.74,0,0,.46-2.7,.18-3.76l.7-1.6,.31,.3,.2-.52-.24-.23c.11-.14,.2-.31,.27-.51,.35-.93,.17-2.15-.42-2.72s-1.34-.27-1.69,.67c-.07,.2-.12,.41-.15,.62l-.24-.23-.2,.52,.31,.3-.54,1.65c-.19-.12-.35-.15-.41-.01-.47,.99-.53,1.88-.44,2.63l-1.16,3.53,1.26,1.22,.7-1.59c.04,.29,.06,.49,.06,.49,0,0-1.34,8.36,.95,13.88,1,2.41,2.51,5.58,3.9,8.4-.12,6.96,.32,18.05,.32,18.05l17.54,.32Z"/></g><path class="cls-16" d="M32.79,89.97l.12,.75-.21,.09-.12-.75-.55,.23-.36-1.73c-.09,.24-.14,.41-.14,.41,0,0-.15,6.56-2.34,10.78-.24,.47-.51,.91-.81,1.31-1.18,1.59-2.46,3.52-3.64,5.28-1.93,2.86-2.92,7.01-2.68,11.21,.19,3.3,.35,6.87,.27,8.47v.08l-13.24-.08s-.68-.9-1.67-2.63c-.28-5.92-.58-14-.24-16.64-1.39,.22-1.45-1.68-1.24-2.42,.2-.74-.64-1.79-1.18-3.68-.54-1.89,.98-2.49,.47-4.53-.51-2.04-.04-5.53,.91-7.11,.62-1.03,1.74-1.13,2.44-1.08,.57-1.14,1.68-1.31,2.4-1.3,.41,.01,.82-.05,1.22-.21,2.08-.84,3.63,2.05,4.12,4.35,.28,1.31,.36,2.74-.49,3.83-.05,.15-.11,.25-.18,.34,.19,5.51-1.03,4.99-1.03,4.99,0,.78,.11,1.74,.23,2.56,.46-.02,.91-.02,1.36,0,.66,.04,1.32-.08,1.96-.34,.33-.14,.66-.31,.97-.52,.98-.66,2.29-1.58,3.57-2.62,.4-.33,.8-.66,1.18-1.01,1.26-1.14,2.37-2.36,2.92-3.49,.78-1.62,1.56-3.15,2.18-4.36,.78-1.51,1.33-2.51,1.33-2.51,0,0,.03-2.62,.45-3.46l-.36-1.74-.33,.14-.09-.55,.25-.11c-.09-.2-.15-.44-.18-.7-.11-.91,.23-1.83,.78-2.11,.63-.32,1.3,.27,1.47,1.3,.03,.21,.05,.42,.03,.63l.25-.11,.09,.55-.33,.14,.22,1.71c.2-.03,.34,.01,.37,.17,.26,1.09,.17,1.92-.03,2.55l.46,3.67-.58,.25Z"/></g><path class="cls-10" d="M134.1,126.25v.12c0,.14-.07,.26-.16,.26H1.68c-.09,0-.16-.12-.16-.26v-.12c0-.14,.07-.26,.16-.26H133.95c.09,0,.16,.12,.16,.26Z"/><g><path class="cls-16" d="M33.83,45.29l-.26,.6-.64,.22-24.88,8.72c.12-.19,.23-.38,.35-.57l24.59-8.68,.83-.29Z"/><path class="cls-19" d="M41.21,46.23h.03l-.45,3.75h-.03c.14,.15,.31,.27,.49,.32,.7,.22,1.38-.52,1.52-1.65,.14-1.13-.32-2.22-1.03-2.44-.18-.06-.36-.05-.54,.01Z"/><polygon class="cls-19" points="41.25 46.24 39.96 45.92 39.67 45.85 35.06 44.72 33.16 44.26 32.86 46.71 34.73 47.48 39.25 49.34 39.54 49.46 40.8 49.98 41.25 46.24"/><polygon class="cls-16" points="35.06 44.72 33.16 44.26 32.86 46.71 34.73 47.48 35.06 44.72"/><polygon class="cls-6" points="39.96 45.92 39.67 45.85 39.25 49.34 39.54 49.46 39.96 45.92"/><polygon class="cls-5" points="41.36 45.75 40.97 45.66 40.42 50.29 40.8 50.44 41.36 45.75"/></g><g><path class="cls-16" d="M135.18,73.94l-23.75-24.25-.54-.55-.11-.7,.7,.72,23.7,24.27c0,.16,0,.33,0,.5Z"/><path class="cls-19" d="M103.8,45.31h-.03l-.37,3.67h.03c-.17,.08-.34,.09-.52,.05-.69-.18-1.16-1.23-1.05-2.34,.11-1.11,.76-1.87,1.45-1.69,.18,.05,.34,.15,.49,.3Z"/><polygon class="cls-19" points="103.77 45.3 105.02 45.7 105.3 45.8 109.77 47.26 111.62 47.86 111.37 50.27 109.5 49.97 104.96 49.23 104.67 49.18 103.4 48.98 103.77 45.3"/><polygon class="cls-16" points="109.77 47.26 111.62 47.86 111.37 50.27 109.5 49.97 109.77 47.26"/><polygon class="cls-15" points="105.02 45.7 105.3 45.8 104.96 49.23 104.67 49.18 105.02 45.7"/><polygon class="cls-5" points="103.77 44.79 104.14 44.91 103.68 49.47 103.3 49.4 103.77 44.79"/></g><g><polygon class="cls-16" points="126.96 25.99 112.74 27.1 112.04 27.15 112.33 27.54 112.86 27.5 127.11 26.35 126.96 25.99"/><path class="cls-19" d="M106.32,30.44l-.02,.02,.86,2.81,.02-.02c-.09,.18-.21,.33-.35,.44-.53,.41-1.16,.06-1.42-.78-.26-.85-.04-1.87,.49-2.29,.14-.11,.28-.16,.43-.17Z"/><polygon class="cls-19" points="106.29 30.46 107.27 29.76 107.49 29.61 110.99 27.12 112.44 26.1 113 27.94 111.62 29.19 108.29 32.23 108.08 32.42 107.15 33.27 106.29 30.46"/><polygon class="cls-16" points="110.99 27.12 112.44 26.1 113 27.94 111.62 29.19 110.99 27.12"/><polygon class="cls-15" points="107.27 29.76 107.49 29.61 108.29 32.23 108.08 32.42 107.27 29.76"/><polygon class="cls-5" points="106.14 30.11 106.43 29.9 107.49 33.38 107.21 33.63 106.14 30.11"/></g><g><rect class="cls-7" x="52.98" y="56.07" width="9.32" height="3.27"/><rect class="cls-19" x="56.19" y="56.93" width="2.69" height=".4"/><rect class="cls-19" x="54.92" y="57.9" width="5.23" height=".4"/></g><g><rect class="cls-7" x="81.61" y="56.07" width="9.32" height="3.27"/><rect class="cls-19" x="84.82" y="56.93" width="2.69" height=".4"/><rect class="cls-19" x="83.55" y="57.9" width="5.23" height=".4"/></g><path class="cls-6" d="M113.59,33.27s7.33,26.33,8.79,22.81c1.46-3.52-8.67-28.12-8.79-22.81Z"/><path class="cls-6" d="M23.61,52.72s-5.38,4.46-8.62,4.99c-3.24,.54-.96,4.03,.76,3.23s9.51-6.8,7.85-8.22Z"/></svg>